<?xml version="1.0" encoding="utf-8" standalone="no"?>
<!DOCTYPE svg PUBLIC "-//W3C//DTD SVG 1.1//EN"
  "http://www.w3.org/Graphics/SVG/1.1/DTD/svg11.dtd">
<!-- Created with matplotlib (https://matplotlib.org/) -->
<svg height="1440pt" version="1.1" viewBox="0 0 2880 1440" width="2880pt" xmlns="http://www.w3.org/2000/svg" xmlns:xlink="http://www.w3.org/1999/xlink">
 <defs>
  <style type="text/css">
*{stroke-linecap:butt;stroke-linejoin:round;}
  </style>
 </defs>
 <g id="figure_1">
  <g id="patch_1">
   <path d="M 0 1440 
L 2880 1440 
L 2880 0 
L 0 0 
z
" style="fill:#ffffff;"/>
  </g>
  <g id="axes_1">
   <g id="patch_2">
    <path d="M 360 1281.6 
L 2592 1281.6 
L 2592 172.8 
L 360 172.8 
z
" style="fill:#ffffff;"/>
   </g>
   <g id="matplotlib.axis_1">
    <g id="xtick_1">
     <g id="line2d_1">
      <defs>
       <path d="M 0 0 
L 0 3.5 
" id="md76ef7ec76" style="stroke:#000000;stroke-width:0.8;"/>
      </defs>
      <g>
       <use style="stroke:#000000;stroke-width:0.8;" x="459.423423" xlink:href="#md76ef7ec76" y="1281.6"/>
      </g>
     </g>
     <g id="text_1">
      <!-- 0 -->
      <defs>
       <path d="M 31.78125 66.40625 
Q 24.171875 66.40625 20.328125 58.90625 
Q 16.5 51.421875 16.5 36.375 
Q 16.5 21.390625 20.328125 13.890625 
Q 24.171875 6.390625 31.78125 6.390625 
Q 39.453125 6.390625 43.28125 13.890625 
Q 47.125 21.390625 47.125 36.375 
Q 47.125 51.421875 43.28125 58.90625 
Q 39.453125 66.40625 31.78125 66.40625 
z
M 31.78125 74.21875 
Q 44.046875 74.21875 50.515625 64.515625 
Q 56.984375 54.828125 56.984375 36.375 
Q 56.984375 17.96875 50.515625 8.265625 
Q 44.046875 -1.421875 31.78125 -1.421875 
Q 19.53125 -1.421875 13.0625 8.265625 
Q 6.59375 17.96875 6.59375 36.375 
Q 6.59375 54.828125 13.0625 64.515625 
Q 19.53125 74.21875 31.78125 74.21875 
z
" id="DejaVuSans-48"/>
      </defs>
      <g transform="translate(456.242173 1296.198437)scale(0.1 -0.1)">
       <use xlink:href="#DejaVuSans-48"/>
      </g>
     </g>
    </g>
    <g id="xtick_2">
     <g id="line2d_2">
      <g>
       <use style="stroke:#000000;stroke-width:0.8;" x="865.64783" xlink:href="#md76ef7ec76" y="1281.6"/>
      </g>
     </g>
     <g id="text_2">
      <!-- 200 -->
      <defs>
       <path d="M 19.1875 8.296875 
L 53.609375 8.296875 
L 53.609375 0 
L 7.328125 0 
L 7.328125 8.296875 
Q 12.9375 14.109375 22.625 23.890625 
Q 32.328125 33.6875 34.8125 36.53125 
Q 39.546875 41.84375 41.421875 45.53125 
Q 43.3125 49.21875 43.3125 52.78125 
Q 43.3125 58.59375 39.234375 62.25 
Q 35.15625 65.921875 28.609375 65.921875 
Q 23.96875 65.921875 18.8125 64.3125 
Q 13.671875 62.703125 7.8125 59.421875 
L 7.8125 69.390625 
Q 13.765625 71.78125 18.9375 73 
Q 24.125 74.21875 28.421875 74.21875 
Q 39.75 74.21875 46.484375 68.546875 
Q 53.21875 62.890625 53.21875 53.421875 
Q 53.21875 48.921875 51.53125 44.890625 
Q 49.859375 40.875 45.40625 35.40625 
Q 44.1875 33.984375 37.640625 27.21875 
Q 31.109375 20.453125 19.1875 8.296875 
z
" id="DejaVuSans-50"/>
      </defs>
      <g transform="translate(856.10408 1296.198437)scale(0.1 -0.1)">
       <use xlink:href="#DejaVuSans-50"/>
       <use x="63.623047" xlink:href="#DejaVuSans-48"/>
       <use x="127.246094" xlink:href="#DejaVuSans-48"/>
      </g>
     </g>
    </g>
    <g id="xtick_3">
     <g id="line2d_3">
      <g>
       <use style="stroke:#000000;stroke-width:0.8;" x="1271.872236" xlink:href="#md76ef7ec76" y="1281.6"/>
      </g>
     </g>
     <g id="text_3">
      <!-- 400 -->
      <defs>
       <path d="M 37.796875 64.3125 
L 12.890625 25.390625 
L 37.796875 25.390625 
z
M 35.203125 72.90625 
L 47.609375 72.90625 
L 47.609375 25.390625 
L 58.015625 25.390625 
L 58.015625 17.1875 
L 47.609375 17.1875 
L 47.609375 0 
L 37.796875 0 
L 37.796875 17.1875 
L 4.890625 17.1875 
L 4.890625 26.703125 
z
" id="DejaVuSans-52"/>
      </defs>
      <g transform="translate(1262.328486 1296.198437)scale(0.1 -0.1)">
       <use xlink:href="#DejaVuSans-52"/>
       <use x="63.623047" xlink:href="#DejaVuSans-48"/>
       <use x="127.246094" xlink:href="#DejaVuSans-48"/>
      </g>
     </g>
    </g>
    <g id="xtick_4">
     <g id="line2d_4">
      <g>
       <use style="stroke:#000000;stroke-width:0.8;" x="1678.096642" xlink:href="#md76ef7ec76" y="1281.6"/>
      </g>
     </g>
     <g id="text_4">
      <!-- 600 -->
      <defs>
       <path d="M 33.015625 40.375 
Q 26.375 40.375 22.484375 35.828125 
Q 18.609375 31.296875 18.609375 23.390625 
Q 18.609375 15.53125 22.484375 10.953125 
Q 26.375 6.390625 33.015625 6.390625 
Q 39.65625 6.390625 43.53125 10.953125 
Q 47.40625 15.53125 47.40625 23.390625 
Q 47.40625 31.296875 43.53125 35.828125 
Q 39.65625 40.375 33.015625 40.375 
z
M 52.59375 71.296875 
L 52.59375 62.3125 
Q 48.875 64.0625 45.09375 64.984375 
Q 41.3125 65.921875 37.59375 65.921875 
Q 27.828125 65.921875 22.671875 59.328125 
Q 17.53125 52.734375 16.796875 39.40625 
Q 19.671875 43.65625 24.015625 45.921875 
Q 28.375 48.1875 33.59375 48.1875 
Q 44.578125 48.1875 50.953125 41.515625 
Q 57.328125 34.859375 57.328125 23.390625 
Q 57.328125 12.15625 50.6875 5.359375 
Q 44.046875 -1.421875 33.015625 -1.421875 
Q 20.359375 -1.421875 13.671875 8.265625 
Q 6.984375 17.96875 6.984375 36.375 
Q 6.984375 53.65625 15.1875 63.9375 
Q 23.390625 74.21875 37.203125 74.21875 
Q 40.921875 74.21875 44.703125 73.484375 
Q 48.484375 72.75 52.59375 71.296875 
z
" id="DejaVuSans-54"/>
      </defs>
      <g transform="translate(1668.552892 1296.198437)scale(0.1 -0.1)">
       <use xlink:href="#DejaVuSans-54"/>
       <use x="63.623047" xlink:href="#DejaVuSans-48"/>
       <use x="127.246094" xlink:href="#DejaVuSans-48"/>
      </g>
     </g>
    </g>
    <g id="xtick_5">
     <g id="line2d_5">
      <g>
       <use style="stroke:#000000;stroke-width:0.8;" x="2084.321048" xlink:href="#md76ef7ec76" y="1281.6"/>
      </g>
     </g>
     <g id="text_5">
      <!-- 800 -->
      <defs>
       <path d="M 31.78125 34.625 
Q 24.75 34.625 20.71875 30.859375 
Q 16.703125 27.09375 16.703125 20.515625 
Q 16.703125 13.921875 20.71875 10.15625 
Q 24.75 6.390625 31.78125 6.390625 
Q 38.8125 6.390625 42.859375 10.171875 
Q 46.921875 13.96875 46.921875 20.515625 
Q 46.921875 27.09375 42.890625 30.859375 
Q 38.875 34.625 31.78125 34.625 
z
M 21.921875 38.8125 
Q 15.578125 40.375 12.03125 44.71875 
Q 8.5 49.078125 8.5 55.328125 
Q 8.5 64.0625 14.71875 69.140625 
Q 20.953125 74.21875 31.78125 74.21875 
Q 42.671875 74.21875 48.875 69.140625 
Q 55.078125 64.0625 55.078125 55.328125 
Q 55.078125 49.078125 51.53125 44.71875 
Q 48 40.375 41.703125 38.8125 
Q 48.828125 37.15625 52.796875 32.3125 
Q 56.78125 27.484375 56.78125 20.515625 
Q 56.78125 9.90625 50.3125 4.234375 
Q 43.84375 -1.421875 31.78125 -1.421875 
Q 19.734375 -1.421875 13.25 4.234375 
Q 6.78125 9.90625 6.78125 20.515625 
Q 6.78125 27.484375 10.78125 32.3125 
Q 14.796875 37.15625 21.921875 38.8125 
z
M 18.3125 54.390625 
Q 18.3125 48.734375 21.84375 45.5625 
Q 25.390625 42.390625 31.78125 42.390625 
Q 38.140625 42.390625 41.71875 45.5625 
Q 45.3125 48.734375 45.3125 54.390625 
Q 45.3125 60.0625 41.71875 63.234375 
Q 38.140625 66.40625 31.78125 66.40625 
Q 25.390625 66.40625 21.84375 63.234375 
Q 18.3125 60.0625 18.3125 54.390625 
z
" id="DejaVuSans-56"/>
      </defs>
      <g transform="translate(2074.777298 1296.198437)scale(0.1 -0.1)">
       <use xlink:href="#DejaVuSans-56"/>
       <use x="63.623047" xlink:href="#DejaVuSans-48"/>
       <use x="127.246094" xlink:href="#DejaVuSans-48"/>
      </g>
     </g>
    </g>
    <g id="xtick_6">
     <g id="line2d_6">
      <g>
       <use style="stroke:#000000;stroke-width:0.8;" x="2490.545455" xlink:href="#md76ef7ec76" y="1281.6"/>
      </g>
     </g>
     <g id="text_6">
      <!-- 1000 -->
      <defs>
       <path d="M 12.40625 8.296875 
L 28.515625 8.296875 
L 28.515625 63.921875 
L 10.984375 60.40625 
L 10.984375 69.390625 
L 28.421875 72.90625 
L 38.28125 72.90625 
L 38.28125 8.296875 
L 54.390625 8.296875 
L 54.390625 0 
L 12.40625 0 
z
" id="DejaVuSans-49"/>
      </defs>
      <g transform="translate(2477.820455 1296.198437)scale(0.1 -0.1)">
       <use xlink:href="#DejaVuSans-49"/>
       <use x="63.623047" xlink:href="#DejaVuSans-48"/>
       <use x="127.246094" xlink:href="#DejaVuSans-48"/>
       <use x="190.869141" xlink:href="#DejaVuSans-48"/>
      </g>
     </g>
    </g>
    <g id="text_7">
     <!-- Time / Data Index -->
     <defs>
      <path d="M -0.296875 72.90625 
L 61.375 72.90625 
L 61.375 64.59375 
L 35.5 64.59375 
L 35.5 0 
L 25.59375 0 
L 25.59375 64.59375 
L -0.296875 64.59375 
z
" id="DejaVuSans-84"/>
      <path d="M 9.421875 54.6875 
L 18.40625 54.6875 
L 18.40625 0 
L 9.421875 0 
z
M 9.421875 75.984375 
L 18.40625 75.984375 
L 18.40625 64.59375 
L 9.421875 64.59375 
z
" id="DejaVuSans-105"/>
      <path d="M 52 44.1875 
Q 55.375 50.25 60.0625 53.125 
Q 64.75 56 71.09375 56 
Q 79.640625 56 84.28125 50.015625 
Q 88.921875 44.046875 88.921875 33.015625 
L 88.921875 0 
L 79.890625 0 
L 79.890625 32.71875 
Q 79.890625 40.578125 77.09375 44.375 
Q 74.3125 48.1875 68.609375 48.1875 
Q 61.625 48.1875 57.5625 43.546875 
Q 53.515625 38.921875 53.515625 30.90625 
L 53.515625 0 
L 44.484375 0 
L 44.484375 32.71875 
Q 44.484375 40.625 41.703125 44.40625 
Q 38.921875 48.1875 33.109375 48.1875 
Q 26.21875 48.1875 22.15625 43.53125 
Q 18.109375 38.875 18.109375 30.90625 
L 18.109375 0 
L 9.078125 0 
L 9.078125 54.6875 
L 18.109375 54.6875 
L 18.109375 46.1875 
Q 21.1875 51.21875 25.484375 53.609375 
Q 29.78125 56 35.6875 56 
Q 41.65625 56 45.828125 52.96875 
Q 50 49.953125 52 44.1875 
z
" id="DejaVuSans-109"/>
      <path d="M 56.203125 29.59375 
L 56.203125 25.203125 
L 14.890625 25.203125 
Q 15.484375 15.921875 20.484375 11.0625 
Q 25.484375 6.203125 34.421875 6.203125 
Q 39.59375 6.203125 44.453125 7.46875 
Q 49.3125 8.734375 54.109375 11.28125 
L 54.109375 2.78125 
Q 49.265625 0.734375 44.1875 -0.34375 
Q 39.109375 -1.421875 33.890625 -1.421875 
Q 20.796875 -1.421875 13.15625 6.1875 
Q 5.515625 13.8125 5.515625 26.8125 
Q 5.515625 40.234375 12.765625 48.109375 
Q 20.015625 56 32.328125 56 
Q 43.359375 56 49.78125 48.890625 
Q 56.203125 41.796875 56.203125 29.59375 
z
M 47.21875 32.234375 
Q 47.125 39.59375 43.09375 43.984375 
Q 39.0625 48.390625 32.421875 48.390625 
Q 24.90625 48.390625 20.390625 44.140625 
Q 15.875 39.890625 15.1875 32.171875 
z
" id="DejaVuSans-101"/>
      <path id="DejaVuSans-32"/>
      <path d="M 25.390625 72.90625 
L 33.6875 72.90625 
L 8.296875 -9.28125 
L 0 -9.28125 
z
" id="DejaVuSans-47"/>
      <path d="M 19.671875 64.796875 
L 19.671875 8.109375 
L 31.59375 8.109375 
Q 46.6875 8.109375 53.6875 14.9375 
Q 60.6875 21.78125 60.6875 36.53125 
Q 60.6875 51.171875 53.6875 57.984375 
Q 46.6875 64.796875 31.59375 64.796875 
z
M 9.8125 72.90625 
L 30.078125 72.90625 
Q 51.265625 72.90625 61.171875 64.09375 
Q 71.09375 55.28125 71.09375 36.53125 
Q 71.09375 17.671875 61.125 8.828125 
Q 51.171875 0 30.078125 0 
L 9.8125 0 
z
" id="DejaVuSans-68"/>
      <path d="M 34.28125 27.484375 
Q 23.390625 27.484375 19.1875 25 
Q 14.984375 22.515625 14.984375 16.5 
Q 14.984375 11.71875 18.140625 8.90625 
Q 21.296875 6.109375 26.703125 6.109375 
Q 34.1875 6.109375 38.703125 11.40625 
Q 43.21875 16.703125 43.21875 25.484375 
L 43.21875 27.484375 
z
M 52.203125 31.203125 
L 52.203125 0 
L 43.21875 0 
L 43.21875 8.296875 
Q 40.140625 3.328125 35.546875 0.953125 
Q 30.953125 -1.421875 24.3125 -1.421875 
Q 15.921875 -1.421875 10.953125 3.296875 
Q 6 8.015625 6 15.921875 
Q 6 25.140625 12.171875 29.828125 
Q 18.359375 34.515625 30.609375 34.515625 
L 43.21875 34.515625 
L 43.21875 35.40625 
Q 43.21875 41.609375 39.140625 45 
Q 35.0625 48.390625 27.6875 48.390625 
Q 23 48.390625 18.546875 47.265625 
Q 14.109375 46.140625 10.015625 43.890625 
L 10.015625 52.203125 
Q 14.9375 54.109375 19.578125 55.046875 
Q 24.21875 56 28.609375 56 
Q 40.484375 56 46.34375 49.84375 
Q 52.203125 43.703125 52.203125 31.203125 
z
" id="DejaVuSans-97"/>
      <path d="M 18.3125 70.21875 
L 18.3125 54.6875 
L 36.8125 54.6875 
L 36.8125 47.703125 
L 18.3125 47.703125 
L 18.3125 18.015625 
Q 18.3125 11.328125 20.140625 9.421875 
Q 21.96875 7.515625 27.59375 7.515625 
L 36.8125 7.515625 
L 36.8125 0 
L 27.59375 0 
Q 17.1875 0 13.234375 3.875 
Q 9.28125 7.765625 9.28125 18.015625 
L 9.28125 47.703125 
L 2.6875 47.703125 
L 2.6875 54.6875 
L 9.28125 54.6875 
L 9.28125 70.21875 
z
" id="DejaVuSans-116"/>
      <path d="M 9.8125 72.90625 
L 19.671875 72.90625 
L 19.671875 0 
L 9.8125 0 
z
" id="DejaVuSans-73"/>
      <path d="M 54.890625 33.015625 
L 54.890625 0 
L 45.90625 0 
L 45.90625 32.71875 
Q 45.90625 40.484375 42.875 44.328125 
Q 39.84375 48.1875 33.796875 48.1875 
Q 26.515625 48.1875 22.3125 43.546875 
Q 18.109375 38.921875 18.109375 30.90625 
L 18.109375 0 
L 9.078125 0 
L 9.078125 54.6875 
L 18.109375 54.6875 
L 18.109375 46.1875 
Q 21.34375 51.125 25.703125 53.5625 
Q 30.078125 56 35.796875 56 
Q 45.21875 56 50.046875 50.171875 
Q 54.890625 44.34375 54.890625 33.015625 
z
" id="DejaVuSans-110"/>
      <path d="M 45.40625 46.390625 
L 45.40625 75.984375 
L 54.390625 75.984375 
L 54.390625 0 
L 45.40625 0 
L 45.40625 8.203125 
Q 42.578125 3.328125 38.25 0.953125 
Q 33.9375 -1.421875 27.875 -1.421875 
Q 17.96875 -1.421875 11.734375 6.484375 
Q 5.515625 14.40625 5.515625 27.296875 
Q 5.515625 40.1875 11.734375 48.09375 
Q 17.96875 56 27.875 56 
Q 33.9375 56 38.25 53.625 
Q 42.578125 51.265625 45.40625 46.390625 
z
M 14.796875 27.296875 
Q 14.796875 17.390625 18.875 11.75 
Q 22.953125 6.109375 30.078125 6.109375 
Q 37.203125 6.109375 41.296875 11.75 
Q 45.40625 17.390625 45.40625 27.296875 
Q 45.40625 37.203125 41.296875 42.84375 
Q 37.203125 48.484375 30.078125 48.484375 
Q 22.953125 48.484375 18.875 42.84375 
Q 14.796875 37.203125 14.796875 27.296875 
z
" id="DejaVuSans-100"/>
      <path d="M 54.890625 54.6875 
L 35.109375 28.078125 
L 55.90625 0 
L 45.3125 0 
L 29.390625 21.484375 
L 13.484375 0 
L 2.875 0 
L 24.125 28.609375 
L 4.6875 54.6875 
L 15.28125 54.6875 
L 29.78125 35.203125 
L 44.28125 54.6875 
z
" id="DejaVuSans-120"/>
     </defs>
     <g transform="translate(1431.369531 1309.876563)scale(0.1 -0.1)">
      <use xlink:href="#DejaVuSans-84"/>
      <use x="61.037109" xlink:href="#DejaVuSans-105"/>
      <use x="88.820312" xlink:href="#DejaVuSans-109"/>
      <use x="186.232422" xlink:href="#DejaVuSans-101"/>
      <use x="247.755859" xlink:href="#DejaVuSans-32"/>
      <use x="279.542969" xlink:href="#DejaVuSans-47"/>
      <use x="313.234375" xlink:href="#DejaVuSans-32"/>
      <use x="345.021484" xlink:href="#DejaVuSans-68"/>
      <use x="422.023438" xlink:href="#DejaVuSans-97"/>
      <use x="483.302734" xlink:href="#DejaVuSans-116"/>
      <use x="522.511719" xlink:href="#DejaVuSans-97"/>
      <use x="583.791016" xlink:href="#DejaVuSans-32"/>
      <use x="615.578125" xlink:href="#DejaVuSans-73"/>
      <use x="645.070312" xlink:href="#DejaVuSans-110"/>
      <use x="708.449219" xlink:href="#DejaVuSans-100"/>
      <use x="771.925781" xlink:href="#DejaVuSans-101"/>
      <use x="833.433594" xlink:href="#DejaVuSans-120"/>
     </g>
    </g>
   </g>
   <g id="matplotlib.axis_2">
    <g id="ytick_1">
     <g id="line2d_7">
      <defs>
       <path d="M 0 0 
L -3.5 0 
" id="m95f657f28b" style="stroke:#000000;stroke-width:0.8;"/>
      </defs>
      <g>
       <use style="stroke:#000000;stroke-width:0.8;" x="360" xlink:href="#m95f657f28b" y="1166.291485"/>
      </g>
     </g>
     <g id="text_8">
      <!-- −1.0 -->
      <defs>
       <path d="M 10.59375 35.5 
L 73.1875 35.5 
L 73.1875 27.203125 
L 10.59375 27.203125 
z
" id="DejaVuSans-8722"/>
       <path d="M 10.6875 12.40625 
L 21 12.40625 
L 21 0 
L 10.6875 0 
z
" id="DejaVuSans-46"/>
      </defs>
      <g transform="translate(328.717188 1170.090703)scale(0.1 -0.1)">
       <use xlink:href="#DejaVuSans-8722"/>
       <use x="83.789062" xlink:href="#DejaVuSans-49"/>
       <use x="147.412109" xlink:href="#DejaVuSans-46"/>
       <use x="179.199219" xlink:href="#DejaVuSans-48"/>
      </g>
     </g>
    </g>
    <g id="ytick_2">
     <g id="line2d_8">
      <g>
       <use style="stroke:#000000;stroke-width:0.8;" x="360" xlink:href="#m95f657f28b" y="930.518043"/>
      </g>
     </g>
     <g id="text_9">
      <!-- −0.5 -->
      <defs>
       <path d="M 10.796875 72.90625 
L 49.515625 72.90625 
L 49.515625 64.59375 
L 19.828125 64.59375 
L 19.828125 46.734375 
Q 21.96875 47.46875 24.109375 47.828125 
Q 26.265625 48.1875 28.421875 48.1875 
Q 40.625 48.1875 47.75 41.5 
Q 54.890625 34.8125 54.890625 23.390625 
Q 54.890625 11.625 47.5625 5.09375 
Q 40.234375 -1.421875 26.90625 -1.421875 
Q 22.3125 -1.421875 17.546875 -0.640625 
Q 12.796875 0.140625 7.71875 1.703125 
L 7.71875 11.625 
Q 12.109375 9.234375 16.796875 8.0625 
Q 21.484375 6.890625 26.703125 6.890625 
Q 35.15625 6.890625 40.078125 11.328125 
Q 45.015625 15.765625 45.015625 23.390625 
Q 45.015625 31 40.078125 35.4375 
Q 35.15625 39.890625 26.703125 39.890625 
Q 22.75 39.890625 18.8125 39.015625 
Q 14.890625 38.140625 10.796875 36.28125 
z
" id="DejaVuSans-53"/>
      </defs>
      <g transform="translate(328.717188 934.317262)scale(0.1 -0.1)">
       <use xlink:href="#DejaVuSans-8722"/>
       <use x="83.789062" xlink:href="#DejaVuSans-48"/>
       <use x="147.412109" xlink:href="#DejaVuSans-46"/>
       <use x="179.199219" xlink:href="#DejaVuSans-53"/>
      </g>
     </g>
    </g>
    <g id="ytick_3">
     <g id="line2d_9">
      <g>
       <use style="stroke:#000000;stroke-width:0.8;" x="360" xlink:href="#m95f657f28b" y="694.744602"/>
      </g>
     </g>
     <g id="text_10">
      <!-- 0.0 -->
      <g transform="translate(337.096875 698.543821)scale(0.1 -0.1)">
       <use xlink:href="#DejaVuSans-48"/>
       <use x="63.623047" xlink:href="#DejaVuSans-46"/>
       <use x="95.410156" xlink:href="#DejaVuSans-48"/>
      </g>
     </g>
    </g>
    <g id="ytick_4">
     <g id="line2d_10">
      <g>
       <use style="stroke:#000000;stroke-width:0.8;" x="360" xlink:href="#m95f657f28b" y="458.97116"/>
      </g>
     </g>
     <g id="text_11">
      <!-- 0.5 -->
      <g transform="translate(337.096875 462.770379)scale(0.1 -0.1)">
       <use xlink:href="#DejaVuSans-48"/>
       <use x="63.623047" xlink:href="#DejaVuSans-46"/>
       <use x="95.410156" xlink:href="#DejaVuSans-53"/>
      </g>
     </g>
    </g>
    <g id="ytick_5">
     <g id="line2d_11">
      <g>
       <use style="stroke:#000000;stroke-width:0.8;" x="360" xlink:href="#m95f657f28b" y="223.197719"/>
      </g>
     </g>
     <g id="text_12">
      <!-- 1.0 -->
      <g transform="translate(337.096875 226.996938)scale(0.1 -0.1)">
       <use xlink:href="#DejaVuSans-49"/>
       <use x="63.623047" xlink:href="#DejaVuSans-46"/>
       <use x="95.410156" xlink:href="#DejaVuSans-48"/>
      </g>
     </g>
    </g>
    <g id="text_13">
     <!-- Torque -->
     <defs>
      <path d="M 30.609375 48.390625 
Q 23.390625 48.390625 19.1875 42.75 
Q 14.984375 37.109375 14.984375 27.296875 
Q 14.984375 17.484375 19.15625 11.84375 
Q 23.34375 6.203125 30.609375 6.203125 
Q 37.796875 6.203125 41.984375 11.859375 
Q 46.1875 17.53125 46.1875 27.296875 
Q 46.1875 37.015625 41.984375 42.703125 
Q 37.796875 48.390625 30.609375 48.390625 
z
M 30.609375 56 
Q 42.328125 56 49.015625 48.375 
Q 55.71875 40.765625 55.71875 27.296875 
Q 55.71875 13.875 49.015625 6.21875 
Q 42.328125 -1.421875 30.609375 -1.421875 
Q 18.84375 -1.421875 12.171875 6.21875 
Q 5.515625 13.875 5.515625 27.296875 
Q 5.515625 40.765625 12.171875 48.375 
Q 18.84375 56 30.609375 56 
z
" id="DejaVuSans-111"/>
      <path d="M 41.109375 46.296875 
Q 39.59375 47.171875 37.8125 47.578125 
Q 36.03125 48 33.890625 48 
Q 26.265625 48 22.1875 43.046875 
Q 18.109375 38.09375 18.109375 28.8125 
L 18.109375 0 
L 9.078125 0 
L 9.078125 54.6875 
L 18.109375 54.6875 
L 18.109375 46.1875 
Q 20.953125 51.171875 25.484375 53.578125 
Q 30.03125 56 36.53125 56 
Q 37.453125 56 38.578125 55.875 
Q 39.703125 55.765625 41.0625 55.515625 
z
" id="DejaVuSans-114"/>
      <path d="M 14.796875 27.296875 
Q 14.796875 17.390625 18.875 11.75 
Q 22.953125 6.109375 30.078125 6.109375 
Q 37.203125 6.109375 41.296875 11.75 
Q 45.40625 17.390625 45.40625 27.296875 
Q 45.40625 37.203125 41.296875 42.84375 
Q 37.203125 48.484375 30.078125 48.484375 
Q 22.953125 48.484375 18.875 42.84375 
Q 14.796875 37.203125 14.796875 27.296875 
z
M 45.40625 8.203125 
Q 42.578125 3.328125 38.25 0.953125 
Q 33.9375 -1.421875 27.875 -1.421875 
Q 17.96875 -1.421875 11.734375 6.484375 
Q 5.515625 14.40625 5.515625 27.296875 
Q 5.515625 40.1875 11.734375 48.09375 
Q 17.96875 56 27.875 56 
Q 33.9375 56 38.25 53.625 
Q 42.578125 51.265625 45.40625 46.390625 
L 45.40625 54.6875 
L 54.390625 54.6875 
L 54.390625 -20.796875 
L 45.40625 -20.796875 
z
" id="DejaVuSans-113"/>
      <path d="M 8.5 21.578125 
L 8.5 54.6875 
L 17.484375 54.6875 
L 17.484375 21.921875 
Q 17.484375 14.15625 20.5 10.265625 
Q 23.53125 6.390625 29.59375 6.390625 
Q 36.859375 6.390625 41.078125 11.03125 
Q 45.3125 15.671875 45.3125 23.6875 
L 45.3125 54.6875 
L 54.296875 54.6875 
L 54.296875 0 
L 45.3125 0 
L 45.3125 8.40625 
Q 42.046875 3.421875 37.71875 1 
Q 33.40625 -1.421875 27.6875 -1.421875 
Q 18.265625 -1.421875 13.375 4.4375 
Q 8.5 10.296875 8.5 21.578125 
z
M 31.109375 56 
z
" id="DejaVuSans-117"/>
     </defs>
     <g transform="translate(322.6375 744.774219)rotate(-90)scale(0.1 -0.1)">
      <use xlink:href="#DejaVuSans-84"/>
      <use x="60.818359" xlink:href="#DejaVuSans-111"/>
      <use x="122" xlink:href="#DejaVuSans-114"/>
      <use x="163.097656" xlink:href="#DejaVuSans-113"/>
      <use x="226.574219" xlink:href="#DejaVuSans-117"/>
      <use x="289.953125" xlink:href="#DejaVuSans-101"/>
     </g>
    </g>
   </g>
   <g id="line2d_12">
    <path clip-path="url(#p717f68e6f6)" d="M 461.454545 226.567726 
L 463.485667 727.143937 
L 465.51679 576.324509 
L 467.547912 1158.158264 
L 469.579034 565.468503 
L 471.610156 919.54002 
L 473.641278 1053.452728 
L 475.6724 867.631918 
L 477.703522 914.02957 
L 479.734644 282.468679 
L 481.765766 223.537141 
L 483.796888 308.084225 
L 485.82801 484.394863 
L 487.859132 456.14957 
L 489.890254 259.896857 
L 491.921376 979.139368 
L 493.952498 600.951866 
L 495.98362 931.647242 
L 498.014742 918.185452 
L 500.045864 586.207354 
L 502.076986 1116.356708 
L 504.108108 230.517945 
L 506.13923 1166.279637 
L 508.170352 1001.916714 
L 510.201474 264.535544 
L 514.263718 1134.202632 
L 516.29484 703.837279 
L 518.325962 303.74493 
L 520.357084 442.288495 
L 522.388206 223.217049 
L 524.419328 334.516418 
L 526.45045 1112.486148 
L 528.481572 1074.382646 
L 530.512695 594.159716 
L 532.543817 1126.762601 
L 534.574939 926.642385 
L 536.606061 233.213415 
L 538.637183 434.711321 
L 540.668305 1086.335141 
L 542.699427 1157.759417 
L 544.730549 478.709111 
L 546.761671 920.219258 
L 548.792793 1026.126177 
L 550.823915 540.218097 
L 552.855037 958.86751 
L 554.886159 1166.204385 
L 556.917281 1161.053333 
L 558.948403 614.355413 
L 560.979525 285.716896 
L 563.010647 1144.214528 
L 565.041769 1166.276486 
L 567.072891 1135.922489 
L 569.104013 1086.290594 
L 571.135135 1125.389749 
L 573.166257 1031.320938 
L 575.197379 1065.109061 
L 577.228501 851.342649 
L 579.259623 479.501913 
L 581.290745 480.557805 
L 583.321867 593.440905 
L 585.352989 965.573417 
L 587.384111 236.155557 
L 589.415233 388.577851 
L 591.446355 353.492175 
L 593.477477 825.791374 
L 595.5086 1066.227383 
L 597.539722 1096.975989 
L 599.570844 1050.529579 
L 601.601966 774.177828 
L 603.633088 1034.847104 
L 605.66421 899.154565 
L 607.695332 1165.66742 
L 609.726454 1145.261475 
L 611.757576 470.654734 
L 613.788698 409.206149 
L 615.81982 908.451954 
L 617.850942 319.270764 
L 619.882064 1054.368395 
L 621.913186 232.246042 
L 623.944308 1052.372927 
L 625.97543 1063.861098 
L 628.006552 274.534374 
L 630.037674 1067.735645 
L 632.068796 395.44416 
L 634.099918 587.76452 
L 636.13104 1015.052635 
L 638.162162 1139.612356 
L 640.193284 1162.51564 
L 642.224406 1166.205702 
L 644.255528 1030.302822 
L 646.28665 231.211503 
L 648.317772 430.134162 
L 650.348894 617.347655 
L 652.380016 599.842498 
L 654.411138 1142.252819 
L 656.44226 1143.151505 
L 658.473382 685.882525 
L 660.504505 663.383615 
L 662.535627 723.268641 
L 664.566749 231.60909 
L 666.597871 551.455421 
L 668.628993 1035.738067 
L 670.660115 567.152453 
L 672.691237 269.046577 
L 676.753481 1136.751911 
L 678.784603 968.689314 
L 680.815725 1031.330958 
L 682.846847 1146.362766 
L 684.877969 225.256498 
L 686.909091 1049.184647 
L 688.940213 298.50512 
L 690.971335 1164.041535 
L 693.002457 282.603325 
L 695.033579 1143.062677 
L 697.064701 232.62222 
L 699.095823 314.014002 
L 701.126945 441.503666 
L 703.158067 803.014518 
L 705.189189 309.228784 
L 707.220311 230.825375 
L 709.251433 1132.398408 
L 711.282555 1035.395718 
L 713.313677 336.353401 
L 715.344799 728.165802 
L 717.375921 256.689234 
L 719.407043 238.657185 
L 721.438165 1134.625612 
L 723.469287 267.208376 
L 725.50041 239.129178 
L 729.562654 764.854054 
L 731.593776 224.267203 
L 733.624898 845.971986 
L 735.65602 647.949548 
L 737.687142 251.904938 
L 739.718264 239.061992 
L 741.749386 556.969102 
L 743.780508 842.233122 
L 745.81163 1084.680723 
L 747.842752 852.870853 
L 749.873874 247.169442 
L 751.904996 244.641483 
L 753.936118 350.066785 
L 755.96724 1166.172122 
L 757.998362 927.716017 
L 760.029484 224.328569 
L 762.060606 1150.754695 
L 764.091728 1162.328091 
L 766.12285 225.164817 
L 768.153972 480.621837 
L 770.185094 1096.764616 
L 772.216216 1157.688678 
L 774.247338 1033.172394 
L 776.27846 266.539262 
L 778.309582 242.785449 
L 780.340704 376.356942 
L 782.371826 1008.430405 
L 784.402948 280.234859 
L 786.43407 1158.946793 
L 788.465192 322.838837 
L 790.496314 1024.140274 
L 792.527437 1147.977585 
L 794.558559 382.486838 
L 796.589681 1089.427077 
L 798.620803 478.825707 
L 800.651925 702.26314 
L 802.683047 231.741245 
L 804.714169 273.119351 
L 806.745291 818.409604 
L 808.776413 769.014065 
L 810.807535 507.548787 
L 812.838657 225.555044 
L 814.869779 596.568377 
L 816.900901 515.895559 
L 818.932023 258.70083 
L 820.963145 583.653796 
L 822.994267 243.188721 
L 825.025389 297.164054 
L 827.056511 1025.860657 
L 829.087633 242.093619 
L 831.118755 1043.63566 
L 833.149877 240.481145 
L 835.180999 233.382981 
L 837.212121 1067.856257 
L 839.243243 1100.466737 
L 841.274365 223.555502 
L 843.305487 293.602666 
L 845.336609 227.992921 
L 847.367731 1146.637046 
L 849.398853 223.252785 
L 851.429975 255.493423 
L 853.461097 1162.138809 
L 855.492219 324.86787 
L 857.523342 970.316376 
L 859.554464 231.182015 
L 861.585586 507.503808 
L 863.616708 224.006506 
L 865.64783 501.076776 
L 867.678952 310.488087 
L 871.741196 1046.299424 
L 873.772318 469.242304 
L 875.80344 795.408803 
L 877.834562 898.729559 
L 879.865684 779.536009 
L 881.896806 1165.5026 
L 883.927928 374.255718 
L 885.95905 368.392399 
L 887.990172 823.481632 
L 890.021294 1166.195144 
L 892.052416 429.032753 
L 894.083538 901.416764 
L 896.11466 738.193976 
L 898.145782 707.371319 
L 900.176904 681.839508 
L 902.208026 474.951455 
L 904.239148 517.476986 
L 906.27027 1121.762896 
L 908.301392 225.932462 
L 910.332514 322.714481 
L 912.363636 691.648716 
L 914.394758 1136.291251 
L 916.42588 924.484631 
L 918.457002 1079.093454 
L 920.488124 1139.318341 
L 922.519247 260.939407 
L 924.550369 1119.836876 
L 926.581491 1136.078138 
L 928.612613 1081.253878 
L 930.643735 994.976936 
L 932.674857 1003.253854 
L 934.705979 231.442984 
L 936.737101 282.898601 
L 938.768223 261.974262 
L 940.799345 311.602901 
L 942.830467 834.55513 
L 944.861589 360.028038 
L 946.892711 271.765024 
L 948.923833 858.086046 
L 950.954955 1035.455618 
L 952.986077 800.951557 
L 955.017199 772.566758 
L 957.048321 939.833692 
L 959.079443 495.990623 
L 961.110565 985.637689 
L 963.141687 1083.289515 
L 965.172809 223.457021 
L 967.203931 650.837903 
L 969.235053 749.320301 
L 971.266175 1143.907172 
L 973.297297 427.418537 
L 975.328419 800.700446 
L 977.359541 818.620306 
L 979.390663 1064.261063 
L 981.421785 225.173291 
L 983.452907 306.401774 
L 985.484029 827.635308 
L 987.515152 993.028844 
L 989.546274 731.59885 
L 991.577396 249.852541 
L 993.608518 237.067962 
L 995.63964 1162.059378 
L 997.670762 845.904089 
L 999.701884 666.562429 
L 1001.733006 588.958381 
L 1003.764128 646.015056 
L 1005.79525 1102.37765 
L 1007.826372 392.008454 
L 1009.857494 426.473322 
L 1011.888616 323.301866 
L 1013.919738 650.995184 
L 1015.95086 581.385788 
L 1017.981982 1161.467708 
L 1020.013104 223.388691 
L 1022.044226 406.864968 
L 1024.075348 808.27299 
L 1026.10647 693.282582 
L 1028.137592 263.321308 
L 1030.168714 659.573364 
L 1032.199836 1141.774278 
L 1034.230958 1130.819755 
L 1036.26208 391.786566 
L 1038.293202 248.933345 
L 1040.324324 267.594221 
L 1042.355446 552.619932 
L 1044.386568 249.132972 
L 1046.41769 930.233233 
L 1048.448812 1065.929361 
L 1050.479934 1162.501602 
L 1052.511057 765.096882 
L 1054.542179 310.566073 
L 1056.573301 530.438154 
L 1058.604423 573.064681 
L 1060.635545 1164.208227 
L 1062.666667 265.940425 
L 1064.697789 298.199335 
L 1066.728911 1016.432998 
L 1068.760033 247.935281 
L 1070.791155 1137.875429 
L 1072.822277 233.989821 
L 1074.853399 576.723493 
L 1076.884521 233.106865 
L 1078.915643 698.028463 
L 1080.946765 361.391296 
L 1082.977887 676.789128 
L 1085.009009 225.745434 
L 1087.040131 1112.898373 
L 1089.071253 368.723896 
L 1091.102375 1158.34465 
L 1093.133497 1131.094094 
L 1095.164619 1144.429613 
L 1097.195741 1166.157023 
L 1099.226863 972.18308 
L 1101.257985 741.693567 
L 1103.289107 616.283082 
L 1105.320229 602.61018 
L 1107.351351 875.734352 
L 1109.382473 860.556056 
L 1111.413595 1162.709578 
L 1113.444717 399.376883 
L 1115.475839 1164.333376 
L 1117.506962 1151.494981 
L 1119.538084 756.092263 
L 1121.569206 1166.283774 
L 1123.600328 557.707126 
L 1125.63145 376.734761 
L 1127.662572 606.103818 
L 1129.693694 1160.261168 
L 1131.724816 712.244087 
L 1133.755938 229.98411 
L 1135.78706 807.42805 
L 1137.818182 1148.103678 
L 1139.849304 1017.399711 
L 1141.880426 718.684625 
L 1143.911548 771.610907 
L 1145.94267 312.156433 
L 1147.973792 571.655126 
L 1150.004914 250.385553 
L 1152.036036 223.564272 
L 1154.067158 985.952713 
L 1156.09828 362.801865 
L 1158.129402 643.211341 
L 1160.160524 970.499026 
L 1162.191646 365.667292 
L 1164.222768 1097.284579 
L 1166.25389 778.903192 
L 1168.285012 862.081382 
L 1170.316134 986.274223 
L 1172.347256 1072.472934 
L 1174.378378 419.883877 
L 1176.4095 1025.074161 
L 1178.440622 696.687165 
L 1180.471744 1008.323978 
L 1182.502867 1113.231657 
L 1184.533989 470.098296 
L 1186.565111 543.065607 
L 1188.596233 520.572602 
L 1190.627355 1048.806489 
L 1192.658477 559.130958 
L 1194.689599 225.221532 
L 1196.720721 899.504693 
L 1198.751843 926.117681 
L 1200.782965 715.557723 
L 1202.814087 961.19464 
L 1204.845209 1144.983527 
L 1206.876331 225.798105 
L 1208.907453 386.916287 
L 1210.938575 319.376214 
L 1212.969697 1054.634137 
L 1215.000819 349.975284 
L 1217.031941 227.561404 
L 1219.063063 312.176636 
L 1221.094185 704.331569 
L 1223.125307 857.282721 
L 1225.156429 225.797292 
L 1227.187551 1153.771697 
L 1229.218673 223.593907 
L 1231.249795 1165.353063 
L 1233.280917 797.924064 
L 1235.312039 875.666045 
L 1237.343161 1154.014448 
L 1239.374283 763.836615 
L 1241.405405 794.164481 
L 1243.436527 1079.821734 
L 1245.467649 905.837281 
L 1247.498771 234.513111 
L 1249.529894 450.297497 
L 1251.561016 1119.417023 
L 1253.592138 256.533296 
L 1255.62326 302.783835 
L 1257.654382 972.103845 
L 1259.685504 482.593629 
L 1261.716626 1152.704127 
L 1263.747748 663.292358 
L 1265.77887 806.545625 
L 1267.809992 237.125353 
L 1269.841114 539.60703 
L 1271.872236 267.086293 
L 1273.903358 365.173452 
L 1275.93448 250.046828 
L 1277.965602 880.871936 
L 1279.996724 943.035983 
L 1282.027846 466.335121 
L 1284.058968 1099.165404 
L 1286.09009 824.613035 
L 1288.121212 341.4853 
L 1290.152334 1121.121975 
L 1292.183456 1099.130477 
L 1294.214578 586.651381 
L 1296.2457 881.02732 
L 1298.276822 753.794508 
L 1300.307944 1163.33127 
L 1302.339066 255.721353 
L 1304.370188 240.174845 
L 1306.40131 271.545984 
L 1308.432432 1164.855188 
L 1310.463554 1154.934421 
L 1312.494676 1119.911441 
L 1314.525799 458.023223 
L 1316.556921 229.887339 
L 1318.588043 295.531349 
L 1320.619165 265.772725 
L 1322.650287 770.663254 
L 1324.681409 601.977296 
L 1326.712531 1026.760658 
L 1328.743653 649.590318 
L 1330.774775 1073.191643 
L 1332.805897 992.752069 
L 1334.837019 1026.673662 
L 1336.868141 354.904235 
L 1338.899263 1166.28165 
L 1340.930385 257.836157 
L 1342.961507 344.154044 
L 1344.992629 354.435756 
L 1347.023751 280.112129 
L 1349.054873 236.77797 
L 1351.085995 261.204779 
L 1353.117117 702.974416 
L 1355.148239 900.361504 
L 1357.179361 943.872982 
L 1359.210483 294.731906 
L 1361.241605 876.4499 
L 1363.272727 630.031864 
L 1365.303849 231.94927 
L 1367.334971 735.681416 
L 1369.366093 519.855873 
L 1371.397215 1120.458369 
L 1373.428337 1111.587934 
L 1375.459459 235.368385 
L 1377.490581 273.000103 
L 1379.521704 736.825388 
L 1381.552826 484.119991 
L 1383.583948 1158.149638 
L 1385.61507 483.44055 
L 1387.646192 484.787852 
L 1389.677314 1161.560989 
L 1391.708436 225.366563 
L 1393.739558 935.483958 
L 1395.77068 531.419425 
L 1397.801802 1166.074299 
L 1399.832924 1165.953197 
L 1401.864046 529.439477 
L 1403.895168 737.538835 
L 1405.92629 1124.619782 
L 1407.957412 354.446336 
L 1409.988534 538.242871 
L 1412.019656 968.728267 
L 1414.050778 427.79854 
L 1416.0819 1028.02368 
L 1418.113022 534.940674 
L 1420.144144 417.594835 
L 1422.175266 228.268553 
L 1424.206388 448.322554 
L 1426.23751 1140.686286 
L 1428.268632 261.669813 
L 1430.299754 223.2 
L 1432.330876 374.042803 
L 1434.361998 691.778901 
L 1436.39312 297.302331 
L 1438.424242 970.610711 
L 1440.455364 309.649451 
L 1442.486486 1148.716811 
L 1444.517609 450.244364 
L 1446.548731 983.941007 
L 1448.579853 1159.393988 
L 1450.610975 467.55678 
L 1452.642097 1128.706527 
L 1454.673219 553.647047 
L 1456.704341 1166.261548 
L 1458.735463 1027.35393 
L 1460.766585 237.41369 
L 1462.797707 224.964019 
L 1464.828829 1010.613596 
L 1466.859951 1089.392551 
L 1468.891073 344.16473 
L 1470.922195 392.833448 
L 1472.953317 1138.230474 
L 1474.984439 310.971506 
L 1477.015561 1017.157649 
L 1479.046683 440.073705 
L 1481.077805 992.402776 
L 1483.108927 390.871319 
L 1485.140049 412.063341 
L 1487.171171 1135.721425 
L 1489.202293 672.694936 
L 1491.233415 530.899036 
L 1493.264537 1157.240051 
L 1495.295659 777.586291 
L 1497.326781 1153.7944 
L 1499.357903 251.422382 
L 1501.389025 295.616092 
L 1503.420147 290.020567 
L 1505.451269 923.978433 
L 1507.482391 724.177086 
L 1509.513514 716.153568 
L 1511.544636 346.050255 
L 1513.575758 1136.647443 
L 1515.60688 622.810578 
L 1517.638002 1047.146762 
L 1519.669124 254.944442 
L 1521.700246 1107.494236 
L 1523.731368 1062.993767 
L 1525.76249 708.477399 
L 1527.793612 955.616293 
L 1529.824734 530.894528 
L 1531.855856 377.958619 
L 1533.886978 1166.191375 
L 1535.9181 270.266241 
L 1537.949222 1131.762867 
L 1539.980344 1141.523247 
L 1542.011466 262.306152 
L 1544.042588 1165.776713 
L 1546.07371 732.284595 
L 1548.104832 873.701368 
L 1550.135954 326.077368 
L 1552.167076 1164.63886 
L 1554.198198 873.731699 
L 1556.22932 297.829604 
L 1558.260442 922.885398 
L 1560.291564 743.876502 
L 1562.322686 1166.002194 
L 1564.353808 229.307603 
L 1566.38493 1091.009135 
L 1568.416052 332.139913 
L 1570.447174 863.824228 
L 1572.478296 274.212724 
L 1574.509419 323.215161 
L 1576.540541 274.152487 
L 1578.571663 1154.051781 
L 1580.602785 1056.207095 
L 1582.633907 1104.642567 
L 1584.665029 569.671038 
L 1586.696151 935.585231 
L 1588.727273 347.746968 
L 1590.758395 750.259079 
L 1592.789517 971.264029 
L 1594.820639 1106.633927 
L 1596.851761 1107.003015 
L 1598.882883 1082.850574 
L 1600.914005 860.968078 
L 1602.945127 1064.494646 
L 1604.976249 243.138155 
L 1607.007371 771.12263 
L 1609.038493 1166.290628 
L 1611.069615 509.042821 
L 1613.100737 1058.703876 
L 1615.131859 374.306006 
L 1617.162981 499.444429 
L 1619.194103 511.854339 
L 1621.225225 235.346107 
L 1623.256347 1097.148483 
L 1625.287469 315.992727 
L 1627.318591 587.165131 
L 1629.349713 918.975794 
L 1631.380835 589.094889 
L 1633.411957 781.023672 
L 1635.443079 523.3891 
L 1637.474201 678.339142 
L 1639.505324 290.799643 
L 1641.536446 443.693322 
L 1643.567568 1027.660718 
L 1645.59869 978.751012 
L 1647.629812 481.920873 
L 1649.660934 560.039597 
L 1651.692056 942.723395 
L 1653.723178 1050.069783 
L 1655.7543 225.395449 
L 1657.785422 1072.95111 
L 1659.816544 317.55326 
L 1661.847666 512.039736 
L 1663.878788 1121.463084 
L 1665.90991 351.749488 
L 1667.941032 326.628938 
L 1669.972154 344.334069 
L 1672.003276 786.698498 
L 1674.034398 1063.574766 
L 1676.06552 234.256114 
L 1678.096642 1037.590361 
L 1680.127764 231.500567 
L 1682.158886 510.706964 
L 1684.190008 1085.296695 
L 1686.22113 1064.407232 
L 1688.252252 415.562216 
L 1690.283374 1164.895056 
L 1692.314496 399.853453 
L 1694.345618 1076.320041 
L 1696.37674 423.988686 
L 1698.407862 224.302697 
L 1700.438984 745.95831 
L 1702.470106 466.290919 
L 1704.501229 678.104579 
L 1706.532351 756.464794 
L 1708.563473 758.196329 
L 1710.594595 573.274956 
L 1712.625717 664.685126 
L 1714.656839 1003.437236 
L 1716.687961 1162.166607 
L 1718.719083 763.992775 
L 1720.750205 1115.81911 
L 1722.781327 1151.866189 
L 1724.812449 475.070001 
L 1726.843571 311.71196 
L 1728.874693 333.652657 
L 1730.905815 705.161081 
L 1732.936937 295.756487 
L 1734.968059 515.973236 
L 1736.999181 282.140233 
L 1739.030303 883.172371 
L 1741.061425 838.435103 
L 1743.092547 493.607857 
L 1745.123669 1023.249119 
L 1747.154791 375.249146 
L 1749.185913 260.823321 
L 1751.217035 637.602065 
L 1753.248157 427.234135 
L 1755.279279 1123.427819 
L 1757.310401 781.09856 
L 1759.341523 524.98237 
L 1761.372645 1087.692131 
L 1763.403767 535.622757 
L 1765.434889 283.381513 
L 1767.466011 838.429307 
L 1769.497133 278.118641 
L 1771.528256 933.214137 
L 1773.559378 542.601456 
L 1775.5905 337.826426 
L 1777.621622 237.463941 
L 1779.652744 486.993894 
L 1781.683866 855.115912 
L 1783.714988 569.472046 
L 1785.74611 875.553064 
L 1787.777232 1003.510637 
L 1789.808354 252.784599 
L 1791.839476 874.888156 
L 1793.870598 223.707353 
L 1795.90172 1126.660185 
L 1797.932842 307.078211 
L 1799.963964 407.518785 
L 1801.995086 251.641728 
L 1804.026208 808.338908 
L 1806.05733 470.746613 
L 1808.088452 747.283142 
L 1810.119574 720.583135 
L 1812.150696 787.364584 
L 1814.181818 847.632762 
L 1816.21294 369.054219 
L 1818.244062 1063.327132 
L 1820.275184 1119.121633 
L 1822.306306 383.189033 
L 1824.337428 1159.001462 
L 1826.36855 756.333197 
L 1828.399672 857.187126 
L 1830.430794 915.470381 
L 1832.461916 696.998481 
L 1834.493038 971.779229 
L 1836.524161 948.026734 
L 1838.555283 843.530914 
L 1840.586405 760.100858 
L 1842.617527 1081.909684 
L 1844.648649 1166.275286 
L 1846.679771 1158.189848 
L 1848.710893 352.982077 
L 1850.742015 323.183882 
L 1852.773137 586.727331 
L 1854.804259 318.765983 
L 1856.835381 257.955099 
L 1858.866503 1103.41259 
L 1860.897625 346.320484 
L 1862.928747 929.494064 
L 1864.959869 1040.116461 
L 1866.990991 1015.663294 
L 1869.022113 240.377967 
L 1871.053235 982.19452 
L 1873.084357 1090.700738 
L 1875.115479 591.073905 
L 1877.146601 268.112467 
L 1879.177723 692.396679 
L 1881.208845 233.416282 
L 1883.239967 953.371682 
L 1885.271089 1153.011724 
L 1887.302211 1165.731705 
L 1889.333333 870.376151 
L 1891.364455 1156.437928 
L 1893.395577 255.569809 
L 1895.426699 1046.557314 
L 1897.457821 224.182599 
L 1899.488943 1000.255732 
L 1901.520066 296.959331 
L 1903.551188 558.639547 
L 1905.58231 544.363276 
L 1907.613432 409.519607 
L 1909.644554 524.958551 
L 1911.675676 260.686831 
L 1913.706798 267.571645 
L 1915.73792 1142.733258 
L 1917.769042 445.404309 
L 1919.800164 889.529767 
L 1921.831286 581.146082 
L 1923.862408 1074.872301 
L 1925.89353 238.363428 
L 1927.924652 1107.259449 
L 1929.955774 1101.569119 
L 1931.986896 569.26202 
L 1934.018018 944.755831 
L 1936.04914 1122.879873 
L 1938.080262 1085.432058 
L 1940.111384 263.089637 
L 1942.142506 270.185447 
L 1944.173628 248.84289 
L 1946.20475 373.494899 
L 1948.235872 766.096656 
L 1950.266994 294.241126 
L 1952.298116 466.460283 
L 1954.329238 1068.403577 
L 1956.36036 235.72771 
L 1958.391482 390.101362 
L 1960.422604 856.470563 
L 1962.453726 260.729183 
L 1964.484848 1148.672416 
L 1966.515971 1135.496917 
L 1968.547093 303.418768 
L 1970.578215 714.317811 
L 1972.609337 347.789924 
L 1974.640459 464.439275 
L 1976.671581 648.872716 
L 1978.702703 237.24623 
L 1980.733825 226.876415 
L 1982.764947 655.817146 
L 1984.796069 869.380069 
L 1986.827191 532.090855 
L 1988.858313 642.50056 
L 1990.889435 233.612092 
L 1992.920557 797.160152 
L 1994.951679 857.314797 
L 1996.982801 410.435217 
L 1999.013923 1032.207005 
L 2001.045045 383.085924 
L 2003.076167 949.786862 
L 2005.107289 297.128032 
L 2007.138411 899.127656 
L 2009.169533 691.761871 
L 2011.200655 242.683338 
L 2013.231777 961.022667 
L 2015.262899 519.572281 
L 2017.294021 679.50623 
L 2019.325143 749.773732 
L 2021.356265 306.559034 
L 2023.387387 817.707926 
L 2025.418509 567.342338 
L 2027.449631 1165.718882 
L 2029.480753 801.919047 
L 2031.511876 363.381736 
L 2033.542998 317.244657 
L 2035.57412 425.528508 
L 2037.605242 333.272968 
L 2039.636364 366.502217 
L 2041.667486 244.894669 
L 2043.698608 926.086732 
L 2045.72973 975.531863 
L 2047.760852 223.255599 
L 2049.791974 539.274093 
L 2051.823096 296.287527 
L 2053.854218 1003.650317 
L 2055.88534 630.310249 
L 2057.916462 1154.498108 
L 2059.947584 672.69596 
L 2061.978706 1115.678121 
L 2064.009828 255.59205 
L 2066.04095 258.486955 
L 2068.072072 856.214635 
L 2070.103194 684.795692 
L 2072.134316 270.287853 
L 2074.165438 1153.378713 
L 2076.19656 285.558893 
L 2078.227682 578.295363 
L 2080.258804 303.414524 
L 2082.289926 1152.385395 
L 2084.321048 251.275206 
L 2086.35217 711.030201 
L 2088.383292 816.689768 
L 2090.414414 301.488592 
L 2092.445536 648.174186 
L 2094.476658 258.008169 
L 2096.507781 934.006762 
L 2098.538903 429.207237 
L 2100.570025 942.508321 
L 2102.601147 802.736703 
L 2104.632269 237.021878 
L 2106.663391 238.788714 
L 2108.694513 1162.442444 
L 2110.725635 1120.561365 
L 2112.756757 1001.256471 
L 2114.787879 1161.778098 
L 2116.819001 1097.790055 
L 2118.850123 1164.491788 
L 2120.881245 1156.55301 
L 2122.912367 402.78145 
L 2124.943489 993.715113 
L 2126.974611 223.960786 
L 2129.005733 266.535741 
L 2131.036855 872.862723 
L 2133.067977 260.827545 
L 2135.099099 245.795414 
L 2137.130221 888.580895 
L 2139.161343 234.992974 
L 2141.192465 993.320324 
L 2143.223587 232.322974 
L 2145.254709 793.460372 
L 2147.285831 1165.196387 
L 2149.316953 468.309116 
L 2151.348075 836.552701 
L 2153.379197 287.039894 
L 2155.410319 253.1338 
L 2157.441441 344.050928 
L 2159.472563 1138.671251 
L 2161.503686 249.941783 
L 2163.534808 519.912977 
L 2165.56593 724.503249 
L 2167.597052 1156.920205 
L 2169.628174 690.299284 
L 2171.659296 1162.783143 
L 2173.690418 860.881579 
L 2175.72154 963.60673 
L 2177.752662 398.420637 
L 2179.783784 360.117424 
L 2181.814906 281.700914 
L 2183.846028 223.394074 
L 2185.87715 225.642122 
L 2187.908272 347.63196 
L 2189.939394 237.753629 
L 2191.970516 228.350492 
L 2194.001638 693.257795 
L 2196.03276 1092.096802 
L 2198.063882 969.516572 
L 2200.095004 1052.435668 
L 2202.126126 327.209081 
L 2204.157248 1063.472279 
L 2206.18837 632.444571 
L 2208.219492 500.107077 
L 2210.250614 1106.155673 
L 2212.281736 819.711719 
L 2214.312858 751.386724 
L 2216.34398 1005.233701 
L 2218.375102 262.341481 
L 2220.406224 695.833524 
L 2222.437346 224.677779 
L 2224.468468 228.684971 
L 2226.49959 717.863398 
L 2228.530713 488.642031 
L 2230.561835 1150.471388 
L 2232.592957 1100.366488 
L 2234.624079 223.970441 
L 2236.655201 960.953187 
L 2238.686323 223.604939 
L 2240.717445 902.654843 
L 2242.748567 1155.522827 
L 2244.779689 920.65057 
L 2246.810811 1078.864523 
L 2248.841933 1158.416576 
L 2250.873055 329.73416 
L 2252.904177 253.789635 
L 2254.935299 284.115022 
L 2256.966421 1106.077138 
L 2258.997543 766.275611 
L 2261.028665 1053.415003 
L 2263.059787 895.651669 
L 2265.090909 253.753393 
L 2267.122031 473.630469 
L 2269.153153 871.761068 
L 2271.184275 357.548277 
L 2273.215397 224.317941 
L 2275.246519 1155.450419 
L 2277.277641 1097.84056 
L 2279.308763 254.038472 
L 2281.339885 917.341841 
L 2283.371007 1061.00108 
L 2285.402129 1069.839421 
L 2287.433251 249.869646 
L 2289.464373 1108.917586 
L 2291.495495 233.079116 
L 2293.526618 1162.476535 
L 2295.55774 687.949307 
L 2297.588862 663.455208 
L 2299.619984 311.306322 
L 2301.651106 240.570924 
L 2303.682228 1080.845941 
L 2305.71335 358.22322 
L 2307.744472 501.1885 
L 2309.775594 444.708888 
L 2311.806716 228.347259 
L 2313.837838 808.09748 
L 2315.86896 871.989549 
L 2317.900082 944.327581 
L 2319.931204 1158.971249 
L 2321.962326 286.461669 
L 2323.993448 235.252021 
L 2326.02457 626.795262 
L 2328.055692 1041.243387 
L 2330.086814 609.528402 
L 2332.117936 338.331971 
L 2334.149058 1163.519114 
L 2336.18018 1012.084879 
L 2338.211302 647.707325 
L 2340.242424 1091.719375 
L 2342.273546 230.817138 
L 2344.304668 309.939629 
L 2346.33579 372.997173 
L 2348.366912 913.966577 
L 2350.398034 327.319621 
L 2352.429156 687.700931 
L 2354.460278 1124.304338 
L 2356.4914 785.84584 
L 2358.522523 336.779997 
L 2360.553645 223.446137 
L 2362.584767 787.404579 
L 2364.615889 1154.606387 
L 2366.647011 343.556817 
L 2368.678133 493.07439 
L 2370.709255 868.642464 
L 2372.740377 594.07996 
L 2374.771499 266.803559 
L 2376.802621 614.496818 
L 2378.833743 431.514917 
L 2380.864865 1039.263325 
L 2382.895987 899.132398 
L 2384.927109 1160.157461 
L 2386.958231 271.238536 
L 2388.989353 336.932132 
L 2391.020475 942.488841 
L 2393.051597 242.064984 
L 2395.082719 827.873058 
L 2397.113841 1166.125862 
L 2399.144963 254.416329 
L 2401.176085 831.393887 
L 2403.207207 1165.931787 
L 2405.238329 682.517467 
L 2407.269451 975.942613 
L 2409.300573 1008.05198 
L 2413.362817 362.865039 
L 2415.393939 346.082851 
L 2417.425061 334.773197 
L 2419.456183 590.379671 
L 2421.487305 268.732854 
L 2423.518428 228.500567 
L 2425.54955 752.525847 
L 2427.580672 864.197256 
L 2429.611794 833.26667 
L 2431.642916 1036.48763 
L 2433.674038 1143.382385 
L 2435.70516 1157.882979 
L 2437.736282 289.989207 
L 2439.767404 228.448388 
L 2441.798526 589.93002 
L 2443.829648 521.209776 
L 2445.86077 499.686584 
L 2447.891892 826.480572 
L 2449.923014 1073.735711 
L 2451.954136 980.335914 
L 2453.985258 430.962475 
L 2456.01638 1118.012912 
L 2458.047502 382.086218 
L 2460.078624 836.529484 
L 2462.109746 1016.929757 
L 2464.140868 275.882408 
L 2466.17199 629.96412 
L 2468.203112 542.566453 
L 2470.234234 1141.362766 
L 2472.265356 1093.89248 
L 2474.296478 225.844523 
L 2476.3276 455.570266 
L 2478.358722 1086.183454 
L 2480.389844 381.832023 
L 2482.420966 225.119326 
L 2484.452088 586.07116 
L 2486.48321 320.112141 
L 2488.514333 911.170477 
L 2490.545455 335.895826 
L 2490.545455 335.895826 
" style="fill:none;stroke:#0000ff;stroke-linecap:square;stroke-width:1.5;"/>
   </g>
   <g id="line2d_13">
    <path clip-path="url(#p717f68e6f6)" d="M 461.454545 261.807745 
L 463.485667 768.704542 
L 465.51679 598.340248 
L 467.547912 1128.398784 
L 469.579034 623.957874 
L 471.610156 889.12838 
L 473.641278 988.158895 
L 475.6724 876.835433 
L 477.703522 885.55864 
L 479.734644 370.629315 
L 481.765766 287.177637 
L 483.796888 440.514808 
L 485.82801 539.72652 
L 487.859132 520.575332 
L 489.890254 383.555743 
L 491.921376 972.754479 
L 493.952498 644.744445 
L 495.98362 930.07473 
L 498.014742 888.248525 
L 500.045864 636.154069 
L 502.076986 1134.628706 
L 504.108108 277.774268 
L 506.13923 1176.612382 
L 508.170352 994.636488 
L 510.201474 390.185506 
L 512.232596 707.967707 
L 514.263718 1078.532169 
L 516.29484 703.647097 
L 518.325962 394.901019 
L 520.357084 510.896958 
L 522.388206 279.425895 
L 524.419328 465.200711 
L 526.45045 1048.529952 
L 528.481572 1074.468392 
L 530.512695 609.270724 
L 532.543817 1067.393929 
L 534.574939 925.761162 
L 536.606061 286.218039 
L 538.637183 541.747452 
L 540.668305 1019.283121 
L 542.699427 1231.2 
L 544.730549 570.778178 
L 546.761671 920.26842 
L 548.792793 1019.256299 
L 550.823915 608.88891 
L 552.855037 915.433436 
L 554.886159 1173.343059 
L 556.917281 1218.727699 
L 558.948403 621.537649 
L 560.979525 416.740014 
L 563.010647 1095.734897 
L 565.041769 1176.373377 
L 567.072891 1081.27895 
L 569.104013 1019.23743 
L 571.135135 1065.45231 
L 573.166257 1024.759547 
L 575.197379 998.664213 
L 577.228501 863.833361 
L 579.259623 536.458282 
L 581.290745 571.960292 
L 583.321867 640.375999 
L 585.352989 960.202024 
L 587.384111 294.228422 
L 589.415233 471.073769 
L 591.446355 481.366822 
L 593.477477 831.107433 
L 595.5086 1064.380748 
L 597.539722 1104.755375 
L 599.570844 985.599441 
L 601.601966 800.829016 
L 603.633088 1028.545449 
L 605.66421 902.566446 
L 607.695332 1164.656751 
L 609.726454 1192.670446 
L 611.757576 565.596003 
L 613.788698 486.87019 
L 615.81982 910.323693 
L 617.850942 451.326474 
L 619.882064 988.966506 
L 621.913186 283.334768 
L 623.944308 987.21015 
L 625.97543 997.515057 
L 628.006552 360.558563 
L 630.037674 1066.21814 
L 632.068796 513.963308 
L 634.099918 605.362935 
L 636.13104 1007.797913 
L 638.162162 1087.438583 
L 640.193284 1144.396761 
L 642.224406 1173.382363 
L 644.255528 1023.674139 
L 646.28665 326.534743 
L 648.317772 538.613161 
L 650.348894 654.232151 
L 652.380016 644.100163 
L 654.411138 1185.299948 
L 656.44226 1187.451873 
L 658.473382 737.828072 
L 660.504505 680.614594 
L 662.535627 771.527286 
L 664.566749 327.75233 
L 666.597871 582.908319 
L 668.628993 1029.508739 
L 670.660115 624.953728 
L 672.691237 353.157303 
L 674.722359 744.370278 
L 676.753481 1082.630472 
L 678.784603 922.268495 
L 680.815725 1024.770247 
L 682.846847 1195.496021 
L 684.877969 302.078756 
L 686.909091 1044.401276 
L 688.940213 430.734561 
L 690.971335 1152.186905 
L 693.002457 413.137144 
L 695.033579 1187.23738 
L 697.064701 284.473284 
L 699.095823 405.554528 
L 701.126945 510.34274 
L 703.158067 826.153423 
L 705.189189 441.649203 
L 707.220311 278.807652 
L 709.251433 1075.725943 
L 711.282555 1029.138273 
L 713.313677 466.814811 
L 715.344799 769.470603 
L 717.375921 378.733154 
L 719.407043 345.892834 
L 721.438165 1079.200982 
L 723.469287 350.585211 
L 725.50041 301.454361 
L 729.562654 795.432176 
L 731.593776 247.118033 
L 733.624898 859.584209 
L 735.65602 671.801562 
L 737.687142 371.105084 
L 739.718264 301.298819 
L 743.780508 856.636343 
L 745.81163 1017.593876 
L 747.842752 847.369549 
L 749.873874 362.920043 
L 751.904996 313.274328 
L 753.936118 478.52672 
L 755.96724 1184.586336 
L 757.998362 926.683963 
L 760.029484 295.582765 
L 762.060606 1109.1533 
L 764.091728 1143.558334 
L 766.12285 301.513521 
L 768.153972 572.001188 
L 770.185094 1030.321875 
L 772.216216 1230.921214 
L 774.247338 970.936283 
L 776.27846 392.938737 
L 778.309582 354.605528 
L 780.340704 461.350409 
L 782.371826 1001.108105 
L 784.402948 410.337127 
L 786.43407 1130.897196 
L 788.465192 414.285951 
L 790.496314 1017.174822 
L 792.527437 1103.170885 
L 794.558559 504.276247 
L 796.589681 1094.195302 
L 798.620803 536.005086 
L 800.651925 702.751239 
L 802.683047 328.150705 
L 804.714169 358.687475 
L 806.745291 838.031967 
L 808.776413 797.837958 
L 810.807535 588.937343 
L 812.838657 256.300617 
L 814.869779 610.739426 
L 816.900901 560.347551 
L 818.932023 381.782179 
L 820.963145 634.659958 
L 822.994267 310.320025 
L 825.025389 387.747708 
L 827.056511 1018.9773 
L 829.087633 353.213187 
L 831.118755 979.67079 
L 833.149877 349.86765 
L 835.180999 332.866142 
L 837.212121 1001.216108 
L 839.243243 1034.421085 
L 841.274365 287.449414 
L 843.305487 425.509716 
L 845.336609 315.294549 
L 847.367731 1100.443012 
L 849.398853 232.479745 
L 851.429975 332.813119 
L 853.461097 1142.731966 
L 855.492219 416.244446 
L 857.523342 964.55387 
L 859.554464 326.443258 
L 861.585586 588.909456 
L 863.616708 292.71392 
L 865.64783 584.911701 
L 867.678952 401.960812 
L 869.710074 689.042518 
L 871.741196 1041.146927 
L 873.772318 529.540739 
L 875.80344 813.191037 
L 877.834562 875.773036 
L 879.865684 803.938703 
L 881.896806 1162.932412 
L 883.927928 459.647741 
L 885.95905 493.374594 
L 890.021294 1173.075209 
L 892.052416 537.855256 
L 894.083538 877.478976 
L 896.11466 780.082314 
L 898.145782 753.899792 
L 900.176904 734.803723 
L 902.208026 568.367074 
L 904.239148 595.062784 
L 906.27027 1060.467408 
L 908.301392 305.908113 
L 910.332514 454.540382 
L 912.363636 742.14064 
L 914.394758 1081.877606 
L 916.42588 892.353517 
L 918.457002 1012.000289 
L 920.488124 1086.933206 
L 922.519247 385.079223 
L 924.550369 1140.539096 
L 926.581491 1081.531203 
L 928.612613 1014.143433 
L 930.643735 941.216721 
L 932.674857 995.956576 
L 934.705979 327.247185 
L 936.737101 371.156388 
L 938.768223 342.966649 
L 940.799345 403.103979 
L 942.830467 850.607793 
L 944.861589 447.853761 
L 946.892711 399.847172 
L 948.923833 869.194333 
L 950.954955 1029.203064 
L 952.986077 816.437773 
L 955.017199 802.921967 
L 957.048321 937.197615 
L 959.079443 547.398046 
L 961.110565 934.36632 
L 963.141687 1085.953988 
L 965.172809 285.895107 
L 967.203931 711.573026 
L 969.235053 785.361503 
L 971.266175 1095.155994 
L 973.297297 500.273108 
L 975.328419 816.29049 
L 977.359541 826.850714 
L 979.390663 997.882681 
L 981.421785 301.566304 
L 983.452907 397.713321 
L 985.484029 832.205091 
L 987.515152 985.966713 
L 989.546274 776.29948 
L 991.577396 367.644985 
L 993.608518 296.525204 
L 995.63964 1214.654688 
L 997.670762 843.154957 
L 999.701884 723.367536 
L 1001.733006 637.761524 
L 1003.764128 707.948761 
L 1005.79525 1112.640182 
L 1007.826372 473.751577 
L 1009.857494 536.088377 
L 1011.888616 414.734418 
L 1013.919738 673.54264 
L 1015.95086 601.452559 
L 1017.981982 1217.101854 
L 1020.013104 236.183817 
L 1024.075348 820.740384 
L 1026.10647 743.362527 
L 1028.137592 344.972006 
L 1032.199836 1091.241037 
L 1034.230958 1073.329023 
L 1036.26208 511.258736 
L 1038.293202 366.053486 
L 1040.324324 394.363962 
L 1042.355446 616.323495 
L 1044.386568 321.837935 
L 1046.41769 928.852956 
L 1048.448812 1064.019141 
L 1050.479934 1212.712173 
L 1054.542179 402.040993 
L 1056.573301 602.975583 
L 1058.604423 596.330978 
L 1060.635545 1153.181991 
L 1062.666667 392.122373 
L 1064.697789 430.413307 
L 1066.728911 957.536198 
L 1068.760033 364.293822 
L 1070.791155 1084.490852 
L 1072.822277 288.43375 
L 1074.853399 630.594634 
L 1076.884521 285.907426 
L 1078.915643 700.341451 
L 1080.946765 449.005014 
L 1082.977887 688.253329 
L 1085.009009 304.901049 
L 1087.040131 1049.038719 
L 1089.071253 455.118626 
L 1091.102375 1128.978093 
L 1093.133497 1161.271002 
L 1095.164619 1096.142351 
L 1097.195741 1184.958447 
L 1099.226863 966.27725 
L 1101.257985 779.624515 
L 1103.289107 653.61794 
L 1105.320229 614.416386 
L 1107.351351 861.374725 
L 1109.382473 871.165461 
L 1111.413595 1145.285855 
L 1113.444717 516.846566 
L 1115.475839 1153.955484 
L 1117.506962 1110.835063 
L 1119.538084 790.375437 
L 1121.569206 1176.981625 
L 1123.600328 586.811161 
L 1125.63145 461.655562 
L 1127.662572 616.538161 
L 1129.693694 1221.666869 
L 1131.724816 708.432717 
L 1133.755938 322.573568 
L 1135.78706 829.548552 
L 1137.818182 1200.123418 
L 1139.849304 1010.197186 
L 1141.880426 762.366917 
L 1143.911548 802.197328 
L 1145.94267 403.669187 
L 1147.973792 627.611468 
L 1150.004914 324.094519 
L 1152.036036 287.576777 
L 1154.067158 934.595141 
L 1156.09828 488.931981 
L 1158.129402 669.090634 
L 1160.160524 923.5413 
L 1162.191646 452.585927 
L 1164.222768 1105.19801 
L 1166.25389 803.571107 
L 1168.285012 872.384773 
L 1170.316134 934.828832 
L 1172.347256 1005.576629 
L 1174.378378 531.501745 
L 1176.4095 1018.152151 
L 1178.440622 745.908619 
L 1180.471744 1001.001521 
L 1182.502867 1129.485156 
L 1184.533989 530.121375 
L 1186.565111 610.602018 
L 1188.596233 563.353948 
L 1190.627355 984.103758 
L 1192.658477 620.200379 
L 1194.689599 301.864695 
L 1196.720721 876.264586 
L 1198.751843 925.310668 
L 1200.782965 710.319808 
L 1202.814087 956.21753 
L 1204.845209 1097.200778 
L 1206.876331 305.188285 
L 1208.907453 469.768967 
L 1210.938575 410.902587 
L 1212.969697 1050.643479 
L 1215.000819 439.211614 
L 1217.031941 313.527918 
L 1219.063063 403.689787 
L 1221.094185 751.625908 
L 1223.125307 850.05065 
L 1225.156429 257.71124 
L 1227.187551 1116.28527 
L 1229.218673 287.996223 
L 1231.249795 1195.527038 
L 1233.280917 814.663294 
L 1235.312039 883.317232 
L 1237.343161 1116.894267 
L 1239.374283 796.312416 
L 1241.405405 812.463351 
L 1243.436527 1012.720048 
L 1245.467649 908.13357 
L 1247.498771 335.896067 
L 1249.529894 516.513891 
L 1251.561016 1139.815192 
L 1253.592138 334.504271 
L 1255.62326 435.168952 
L 1257.654382 966.203975 
L 1259.685504 573.259 
L 1261.716626 1113.673676 
L 1263.747748 720.917134 
L 1265.77887 819.723764 
L 1267.809992 342.372532 
L 1269.841114 608.520789 
L 1271.872236 350.412595 
L 1273.903358 452.174648 
L 1275.93448 323.48936 
L 1277.965602 887.543682 
L 1279.996724 940.007643 
L 1282.027846 562.794499 
L 1284.058968 1032.968328 
L 1286.09009 842.848501 
L 1288.121212 431.684958 
L 1290.152334 1142.77435 
L 1292.183456 1032.929518 
L 1294.214578 636.413672 
L 1296.2457 887.670163 
L 1298.276822 788.732065 
L 1300.307944 1208.734553 
L 1302.339066 377.234716 
L 1304.370188 303.834863 
L 1306.40131 356.577361 
L 1308.432432 1199.561496 
L 1310.463554 1220.83237 
L 1312.494676 1057.997211 
L 1314.525799 557.357425 
L 1316.556921 275.584875 
L 1318.588043 427.584527 
L 1320.619165 348.540657 
L 1322.650287 801.479147 
L 1324.681409 645.3397 
L 1326.712531 1019.923875 
L 1328.743653 672.739665 
L 1330.774775 1072.971094 
L 1332.805897 939.57195 
L 1334.837019 965.655816 
L 1336.868141 443.483448 
L 1338.899263 1176.782291 
L 1340.930385 380.482033 
L 1342.961507 434.074967 
L 1344.992629 443.080348 
L 1347.023751 410.190568 
L 1349.054873 341.548072 
L 1351.085995 341.806141 
L 1353.117117 703.156026 
L 1355.148239 903.568729 
L 1357.179361 905.21769 
L 1359.210483 426.727633 
L 1361.241605 861.817726 
L 1363.272727 661.533341 
L 1365.303849 328.771647 
L 1367.334971 775.1087 
L 1369.366093 562.894074 
L 1371.397215 1058.721968 
L 1373.428337 1047.427678 
L 1375.459459 338.09081 
L 1377.490581 401.42767 
L 1379.521704 779.296939 
L 1381.552826 539.543426 
L 1383.583948 1228.673333 
L 1385.61507 573.798341 
L 1387.646192 539.988189 
L 1389.677314 1216.726383 
L 1391.708436 302.740998 
L 1393.739558 899.606971 
L 1395.77068 570.278118 
L 1397.801802 1170.343367 
L 1399.832924 1188.731117 
L 1401.864046 602.369065 
L 1403.895168 779.70633 
L 1405.92629 1149.01637 
L 1407.957412 443.089458 
L 1409.988534 574.601573 
L 1412.019656 963.092458 
L 1414.050778 537.004226 
L 1416.0819 1021.256523 
L 1418.113022 605.7038 
L 1420.144144 493.101214 
L 1422.175266 269.441304 
L 1424.206388 550.92973 
L 1426.23751 1089.307929 
L 1428.268632 386.13458 
L 1430.299754 229.058478 
L 1432.330876 497.794236 
L 1434.361998 696.78529 
L 1436.39312 429.467458 
L 1438.424242 964.825202 
L 1440.455364 401.096521 
L 1442.486486 1201.804486 
L 1444.517609 552.210485 
L 1446.548731 977.2783 
L 1448.579853 1132.373516 
L 1450.610975 528.395501 
L 1452.642097 1156.635293 
L 1454.673219 584.278443 
L 1456.704341 1181.559363 
L 1458.735463 1020.549228 
L 1460.766585 343.049195 
L 1462.797707 300.227685 
L 1464.828829 953.022712 
L 1466.859951 1022.447218 
L 1468.891073 434.084491 
L 1470.922195 474.392348 
L 1472.953317 1085.086134 
L 1474.984439 443.363497 
L 1477.015561 958.103153 
L 1479.046683 545.388956 
L 1481.077805 939.314474 
L 1483.108927 510.578393 
L 1485.140049 489.004064 
L 1487.171171 1170.70871 
L 1489.202293 727.960228 
L 1491.233415 603.255314 
L 1493.264537 1125.636379 
L 1495.295659 802.806423 
L 1497.326781 1217.016537 
L 1499.357903 370.302631 
L 1501.389025 386.023401 
L 1503.420147 379.644482 
L 1505.451269 892.022367 
L 1507.482391 766.481021 
L 1509.513514 767.455326 
L 1511.544636 435.759481 
L 1513.575758 1172.678408 
L 1515.60688 657.380408 
L 1517.638002 982.671946 
L 1519.669124 376.016307 
L 1521.700246 1042.508037 
L 1523.731368 1060.482126 
L 1525.76249 706.288209 
L 1527.793612 951.185646 
L 1529.824734 569.94453 
L 1531.855856 462.641966 
L 1533.886978 1172.969647 
L 1535.9181 354.836974 
L 1537.949222 1074.754656 
L 1539.980344 1090.791369 
L 1542.011466 387.046228 
L 1544.042588 1191.115896 
L 1546.07371 776.692603 
L 1548.104832 860.117735 
L 1550.135954 457.631847 
L 1552.167076 1155.95428 
L 1554.198198 881.752201 
L 1556.22932 388.483995 
L 1558.260442 891.308084 
L 1560.291564 781.265543 
L 1562.322686 1187.962854 
L 1564.353808 273.479755 
L 1566.38493 1096.367659 
L 1568.416052 463.095326 
L 1570.447174 854.044144 
L 1572.478296 360.135402 
L 1574.509419 414.65051 
L 1576.540541 402.88574 
L 1578.571663 1116.988451 
L 1580.602785 990.596912 
L 1582.633907 1039.17505 
L 1584.665029 594.235142 
L 1586.696151 933.490431 
L 1588.727273 476.584874 
L 1590.758395 786.068392 
L 1592.789517 965.428001 
L 1596.851761 1119.641016 
L 1598.882883 1015.743158 
L 1600.914005 852.297769 
L 1602.945127 1062.284893 
L 1604.976249 355.306101 
L 1607.007371 801.827256 
L 1609.038493 1178.008961 
L 1611.069615 589.862904 
L 1613.100737 992.829897 
L 1615.131859 459.688602 
L 1617.162981 549.664018 
L 1619.194103 557.739217 
L 1621.225225 338.034625 
L 1623.256347 1105.002684 
L 1625.287469 448.2194 
L 1627.318591 636.713964 
L 1629.349713 888.761701 
L 1631.380835 606.176875 
L 1633.411957 809.344464 
L 1635.443079 565.158216 
L 1637.474201 732.184736 
L 1639.505324 422.447132 
L 1641.536446 547.829112 
L 1643.567568 966.451163 
L 1645.59869 929.401328 
L 1647.629812 538.076425 
L 1649.660934 620.740059 
L 1651.692056 939.732738 
L 1653.723178 985.199396 
L 1655.7543 302.912006 
L 1657.785422 1006.033663 
L 1659.816544 449.704525 
L 1661.847666 591.715409 
L 1663.878788 1143.372714 
L 1665.90991 479.925885 
L 1667.941032 417.930405 
L 1669.972154 473.699923 
L 1672.003276 808.105891 
L 1674.034398 997.252263 
L 1676.06552 289.175438 
L 1678.096642 1031.520279 
L 1680.127764 327.422868 
L 1682.158886 556.996816 
L 1684.190008 1018.220986 
L 1686.22113 1062.179577 
L 1688.252252 528.462916 
L 1690.283374 1199.267304 
L 1692.314496 479.79662 
L 1694.345618 1009.283696 
L 1696.37674 534.365399 
L 1698.407862 247.42978 
L 1700.438984 784.542146 
L 1702.470106 562.765748 
L 1704.501229 732.009211 
L 1706.532351 790.745595 
L 1708.563473 792.052067 
L 1710.594595 628.565832 
L 1712.625717 681.356758 
L 1714.656839 996.137951 
L 1716.687961 1214.193337 
L 1718.719083 796.430475 
L 1720.750205 1052.697787 
L 1722.781327 1111.693949 
L 1724.812449 568.443313 
L 1726.843571 444.087243 
L 1728.874693 464.437768 
L 1730.905815 752.246391 
L 1732.936937 386.180481 
L 1734.968059 594.138738 
L 1736.999181 370.225447 
L 1739.030303 865.994765 
L 1741.061425 838.661155 
L 1743.092547 545.829807 
L 1745.123669 1016.244672 
L 1747.154791 498.729055 
L 1749.185913 384.910593 
L 1751.217035 665.877411 
L 1753.248157 500.139658 
L 1755.279279 1062.730755 
L 1757.310401 809.40143 
L 1759.341523 599.655844 
L 1761.372645 1091.836301 
L 1763.403767 606.116217 
L 1765.434889 371.746317 
L 1767.466011 838.657678 
L 1769.497133 365.19223 
L 1771.528256 931.431484 
L 1773.559378 610.323033 
L 1775.5905 468.100953 
L 1777.621622 297.498769 
L 1779.652744 541.454832 
L 1781.683866 848.73267 
L 1783.714988 594.112116 
L 1785.74611 883.225743 
L 1787.777232 947.604364 
L 1789.808354 372.551267 
L 1791.839476 882.687517 
L 1793.870598 241.253065 
L 1795.90172 1152.773319 
L 1797.932842 439.512025 
L 1799.963964 522.738375 
L 1801.995086 370.668203 
L 1804.026208 820.779198 
L 1806.05733 530.560708 
L 1808.088452 785.303901 
L 1810.119574 763.788683 
L 1812.150696 808.49406 
L 1814.181818 844.198606 
L 1816.21294 493.895836 
L 1818.244062 1060.881545 
L 1820.275184 1056.957715 
L 1822.306306 466.822803 
L 1824.337428 1225.970234 
L 1826.36855 790.646329 
L 1828.399672 849.992454 
L 1830.430794 886.489588 
L 1832.461916 746.141436 
L 1834.493038 965.903889 
L 1836.524161 944.414987 
L 1838.555283 857.658642 
L 1840.586405 793.489826 
L 1842.617527 1084.139628 
L 1844.648649 1176.288993 
L 1846.679771 1128.496485 
L 1848.710893 441.825681 
L 1850.742015 414.620232 
L 1852.773137 636.458071 
L 1854.804259 410.300771 
L 1856.835381 380.661796 
L 1858.866503 1037.759669 
L 1860.897625 435.998638 
L 1862.928747 928.215248 
L 1864.959869 976.699156 
L 1866.990991 956.935209 
L 1869.022113 304.288845 
L 1871.053235 931.875153 
L 1873.084357 1023.818516 
L 1875.115479 638.996138 
L 1877.146601 395.058202 
L 1879.177723 742.700007 
L 1881.208845 332.957733 
L 1883.239967 949.17438 
L 1885.271089 1214.495516 
L 1887.302211 1165.39048 
L 1889.333333 858.066916 
L 1891.364455 1226.167286 
L 1893.395577 332.93823 
L 1895.426699 1041.436438 
L 1897.457821 294.341322 
L 1899.488943 945.152844 
L 1901.520066 387.520616 
L 1903.551188 619.908374 
L 1905.58231 611.381481 
L 1907.613432 524.170996 
L 1909.644554 566.161656 
L 1911.675676 384.712003 
L 1913.706798 394.333632 
L 1915.73792 1092.979832 
L 1917.769042 513.090456 
L 1919.800164 869.971082 
L 1921.831286 633.190705 
L 1923.862408 1075.086481 
L 1925.89353 345.231531 
L 1927.924652 1042.230814 
L 1929.955774 1111.440884 
L 1931.986896 626.199821 
L 1934.018018 905.812345 
L 1936.04914 1061.981317 
L 1938.080262 1018.359086 
L 1940.111384 344.629435 
L 1942.142506 397.797857 
L 1944.173628 365.895391 
L 1946.20475 497.368656 
L 1948.235872 798.021627 
L 1950.266994 426.199407 
L 1952.298116 527.649102 
L 1954.329238 1001.728255 
L 1956.36036 293.123974 
L 1958.391482 510.004923 
L 1960.422604 867.90734 
L 1962.453726 384.773662 
L 1964.484848 1104.623338 
L 1966.515971 1170.23553 
L 1968.547093 435.817656 
L 1970.578215 759.097741 
L 1972.609337 476.620969 
L 1974.640459 561.559831 
L 1976.671581 710.096673 
L 1978.702703 296.965169 
L 1980.733825 310.534248 
L 1982.764947 715.311173 
L 1984.796069 878.241733 
L 1986.827191 603.978187 
L 1988.858313 668.683713 
L 1990.889435 333.49333 
L 1992.920557 814.215965 
L 1994.951679 850.070178 
L 1996.982801 524.82465 
L 1999.013923 1025.706958 
L 2001.045045 466.740917 
L 2003.076167 909.216938 
L 2005.107289 429.283062 
L 2007.138411 902.544115 
L 2009.169533 742.225264 
L 2011.200655 309.267806 
L 2013.231777 916.922995 
L 2015.262899 562.71203 
L 2017.294021 733.058024 
L 2019.325143 785.702911 
L 2021.356265 397.8785 
L 2023.387387 826.310463 
L 2025.418509 625.065957 
L 2027.449631 1165.240894 
L 2029.480753 825.311933 
L 2031.511876 450.677503 
L 2033.542998 408.792952 
L 2035.57412 498.903234 
L 2037.605242 424.180905 
L 2039.636364 491.880523 
L 2041.667486 358.708173 
L 2043.698608 893.403099 
L 2045.72973 927.104083 
L 2047.760852 232.588116 
L 2049.791974 575.252915 
L 2051.823096 428.391059 
L 2053.854218 996.348803 
L 2055.88534 696.118008 
L 2057.916462 1219.350568 
L 2059.947584 727.960995 
L 2061.978706 1052.518901 
L 2064.009828 377.032915 
L 2066.04095 381.462021 
L 2068.072072 867.70361 
L 2070.103194 692.811286 
L 2072.134316 397.931697 
L 2074.165438 1215.668208 
L 2076.19656 416.55922 
L 2078.227682 599.553218 
L 2080.258804 435.813328 
L 2082.289926 1112.913733 
L 2084.321048 370.056567 
L 2086.35217 756.637348 
L 2088.383292 825.707921 
L 2090.414414 392.479469 
L 2092.445536 709.571756 
L 2094.476658 380.741907 
L 2096.507781 932.118974 
L 2098.538903 501.565321 
L 2100.570025 939.543668 
L 2102.601147 817.485349 
L 2104.632269 296.411016 
L 2106.663391 346.186925 
L 2108.694513 1212.978341 
L 2110.725635 1058.858911 
L 2112.756757 993.986229 
L 2114.787879 1141.207509 
L 2116.819001 1105.92503 
L 2118.850123 1154.97085 
L 2120.881245 1123.659232 
L 2122.912367 519.322639 
L 2124.943489 940.282886 
L 2126.974611 292.263089 
L 2129.005733 392.933952 
L 2131.036855 859.599904 
L 2133.067977 384.916732 
L 2135.099099 315.551887 
L 2137.130221 869.375931 
L 2139.161343 337.137157 
L 2141.192465 939.99126 
L 2143.223587 283.569484 
L 2145.254709 812.051773 
L 2147.285831 1160.153192 
L 2149.316953 528.906995 
L 2151.348075 837.532413 
L 2153.379197 418.245602 
L 2155.410319 328.875335 
L 2157.441441 433.983042 
L 2159.472563 1177.089645 
L 2161.503686 323.300936 
L 2163.534808 562.930724 
L 2165.56593 772.234206 
L 2167.597052 1124.707019 
L 2169.628174 695.94333 
L 2171.659296 1145.629363 
L 2173.690418 852.244947 
L 2175.72154 918.716462 
L 2177.752662 516.147807 
L 2179.783784 486.772706 
L 2181.814906 412.076567 
L 2183.846028 284.739943 
L 2185.87715 304.328916 
L 2187.908272 476.488207 
L 2189.939394 298.202604 
L 2191.970516 269.773906 
L 2194.001638 743.34399 
L 2196.03276 1025.293934 
L 2198.063882 922.849786 
L 2200.095004 987.26517 
L 2202.126126 418.483042 
L 2204.157248 1061.05563 
L 2206.18837 662.918848 
L 2208.219492 584.306217 
L 2210.250614 1118.339976 
L 2212.281736 827.497364 
L 2214.312858 786.917719 
L 2216.34398 997.919067 
L 2218.375102 343.516592 
L 2220.406224 699.092469 
L 2222.437346 250.459451 
L 2224.468468 317.970094 
L 2226.49959 768.433572 
L 2228.530713 577.099012 
L 2230.561835 1206.781079 
L 2232.592957 1109.669774 
L 2234.624079 292.359397 
L 2236.655201 916.874886 
L 2238.686323 239.866158 
L 2240.717445 878.266727 
L 2242.748567 1222.875991 
L 2244.779689 889.850898 
L 2246.810811 1011.774595 
L 2248.841933 1227.842026 
L 2250.873055 420.872849 
L 2252.904177 329.984404 
L 2254.935299 414.897107 
L 2256.966421 1040.842562 
L 2258.997543 796.253906 
L 2261.028665 1049.235793 
L 2263.059787 899.665221 
L 2265.090909 374.12012 
L 2267.122031 532.510498 
L 2269.153153 880.160738 
L 2271.184275 445.747348 
L 2273.215397 295.49518 
L 2275.246519 1120.625293 
L 2277.277641 1031.502622 
L 2279.308763 374.577177 
L 2281.339885 917.822924 
L 2283.371007 994.904414 
L 2285.402129 1003.077882 
L 2287.433251 367.674346 
L 2289.464373 1122.613063 
L 2291.495495 332.023449 
L 2293.526618 1212.825208 
L 2295.55774 694.606046 
L 2297.588862 721.03919 
L 2299.619984 443.691096 
L 2301.651106 304.717675 
L 2303.682228 1013.7369 
L 2305.71335 446.322264 
L 2307.744472 584.981422 
L 2309.775594 548.511241 
L 2311.806716 316.686832 
L 2313.837838 830.064208 
L 2315.86896 880.345107 
L 2317.900082 905.523789 
L 2319.931204 1130.976759 
L 2321.962326 375.458384 
L 2323.993448 337.796784 
L 2326.02457 659.673145 
L 2328.055692 1035.523472 
L 2330.086814 649.715118 
L 2332.117936 428.830994 
L 2334.149058 1149.286161 
L 2336.18018 1004.785603 
L 2338.211302 709.220885 
L 2340.242424 1024.893812 
L 2342.273546 278.780236 
L 2344.304668 401.396 
L 2346.33579 496.981506 
L 2348.366912 914.965828 
L 2350.398034 458.762577 
L 2352.429156 739.188145 
L 2354.460278 1063.939144 
L 2356.4914 813.016226 
L 2358.522523 467.188025 
L 2360.553645 285.706335 
L 2362.584767 814.204695 
L 2364.615889 1219.715744 
L 2366.647011 433.54209 
L 2368.678133 579.896114 
L 2370.709255 877.648096 
L 2372.740377 609.222064 
L 2374.771499 393.297331 
L 2376.802621 652.586811 
L 2378.833743 539.561246 
L 2380.864865 1033.34757 
L 2382.895987 902.54805 
L 2384.927109 1135.008391 
L 2386.958231 399.167669 
L 2388.989353 467.320975 
L 2391.020475 939.526546 
L 2393.051597 353.155024 
L 2395.082719 845.387196 
L 2397.113841 1171.380072 
L 2399.144963 331.033509 
L 2401.176085 848.13505 
L 2403.207207 1167.996229 
L 2405.238329 691.514567 
L 2407.269451 927.39639 
L 2409.300573 1000.729253 
L 2411.331695 697.62082 
L 2413.362817 488.982589 
L 2415.393939 435.788341 
L 2417.425061 465.427024 
L 2419.456183 638.591128 
L 2421.487305 352.721841 
L 2423.518428 270.376333 
L 2425.54955 788.320795 
L 2427.580672 874.078815 
L 2429.611794 849.59931 
L 2431.642916 1030.32129 
L 2433.674038 1188.011264 
L 2435.70516 1127.555075 
L 2437.736282 379.608052 
L 2439.767404 317.075388 
L 2441.798526 638.328731 
L 2443.829648 563.762526 
L 2445.86077 549.822577 
L 2447.891892 844.302168 
L 2449.923014 1073.654018 
L 2451.954136 973.877651 
L 2453.985258 502.829436 
L 2456.01638 1055.512295 
L 2458.047502 465.945885 
L 2460.078624 852.154872 
L 2462.109746 1009.715559 
L 2464.140868 405.045677 
L 2466.17199 695.856694 
L 2468.203112 610.301989 
L 2470.234234 1183.206976 
L 2472.265356 1100.381215 
L 2474.296478 257.978512 
L 2476.3276 520.174836 
L 2478.358722 1019.127585 
L 2480.389844 465.743415 
L 2482.420966 301.228176 
L 2484.452088 604.326117 
L 2486.48321 452.116345 
L 2488.514333 912.608163 
L 2490.545455 426.603028 
L 2490.545455 426.603028 
" style="fill:none;stroke:#ff0000;stroke-linecap:square;stroke-width:1.5;"/>
   </g>
   <g id="patch_3">
    <path d="M 360 1281.6 
L 360 172.8 
" style="fill:none;stroke:#000000;stroke-linecap:square;stroke-linejoin:miter;stroke-width:0.8;"/>
   </g>
   <g id="patch_4">
    <path d="M 2592 1281.6 
L 2592 172.8 
" style="fill:none;stroke:#000000;stroke-linecap:square;stroke-linejoin:miter;stroke-width:0.8;"/>
   </g>
   <g id="patch_5">
    <path d="M 360 1281.6 
L 2592 1281.6 
" style="fill:none;stroke:#000000;stroke-linecap:square;stroke-linejoin:miter;stroke-width:0.8;"/>
   </g>
   <g id="patch_6">
    <path d="M 360 172.8 
L 2592 172.8 
" style="fill:none;stroke:#000000;stroke-linecap:square;stroke-linejoin:miter;stroke-width:0.8;"/>
   </g>
   <g id="text_14">
    <!-- Prediction for the torque of the first joint of Barret WAM (inverse dynamics data) -->
    <defs>
     <path d="M 19.671875 64.796875 
L 19.671875 37.40625 
L 32.078125 37.40625 
Q 38.96875 37.40625 42.71875 40.96875 
Q 46.484375 44.53125 46.484375 51.125 
Q 46.484375 57.671875 42.71875 61.234375 
Q 38.96875 64.796875 32.078125 64.796875 
z
M 9.8125 72.90625 
L 32.078125 72.90625 
Q 44.34375 72.90625 50.609375 67.359375 
Q 56.890625 61.8125 56.890625 51.125 
Q 56.890625 40.328125 50.609375 34.8125 
Q 44.34375 29.296875 32.078125 29.296875 
L 19.671875 29.296875 
L 19.671875 0 
L 9.8125 0 
z
" id="DejaVuSans-80"/>
     <path d="M 48.78125 52.59375 
L 48.78125 44.1875 
Q 44.96875 46.296875 41.140625 47.34375 
Q 37.3125 48.390625 33.40625 48.390625 
Q 24.65625 48.390625 19.8125 42.84375 
Q 14.984375 37.3125 14.984375 27.296875 
Q 14.984375 17.28125 19.8125 11.734375 
Q 24.65625 6.203125 33.40625 6.203125 
Q 37.3125 6.203125 41.140625 7.25 
Q 44.96875 8.296875 48.78125 10.40625 
L 48.78125 2.09375 
Q 45.015625 0.34375 40.984375 -0.53125 
Q 36.96875 -1.421875 32.421875 -1.421875 
Q 20.0625 -1.421875 12.78125 6.34375 
Q 5.515625 14.109375 5.515625 27.296875 
Q 5.515625 40.671875 12.859375 48.328125 
Q 20.21875 56 33.015625 56 
Q 37.15625 56 41.109375 55.140625 
Q 45.0625 54.296875 48.78125 52.59375 
z
" id="DejaVuSans-99"/>
     <path d="M 37.109375 75.984375 
L 37.109375 68.5 
L 28.515625 68.5 
Q 23.6875 68.5 21.796875 66.546875 
Q 19.921875 64.59375 19.921875 59.515625 
L 19.921875 54.6875 
L 34.71875 54.6875 
L 34.71875 47.703125 
L 19.921875 47.703125 
L 19.921875 0 
L 10.890625 0 
L 10.890625 47.703125 
L 2.296875 47.703125 
L 2.296875 54.6875 
L 10.890625 54.6875 
L 10.890625 58.5 
Q 10.890625 67.625 15.140625 71.796875 
Q 19.390625 75.984375 28.609375 75.984375 
z
" id="DejaVuSans-102"/>
     <path d="M 54.890625 33.015625 
L 54.890625 0 
L 45.90625 0 
L 45.90625 32.71875 
Q 45.90625 40.484375 42.875 44.328125 
Q 39.84375 48.1875 33.796875 48.1875 
Q 26.515625 48.1875 22.3125 43.546875 
Q 18.109375 38.921875 18.109375 30.90625 
L 18.109375 0 
L 9.078125 0 
L 9.078125 75.984375 
L 18.109375 75.984375 
L 18.109375 46.1875 
Q 21.34375 51.125 25.703125 53.5625 
Q 30.078125 56 35.796875 56 
Q 45.21875 56 50.046875 50.171875 
Q 54.890625 44.34375 54.890625 33.015625 
z
" id="DejaVuSans-104"/>
     <path d="M 44.28125 53.078125 
L 44.28125 44.578125 
Q 40.484375 46.53125 36.375 47.5 
Q 32.28125 48.484375 27.875 48.484375 
Q 21.1875 48.484375 17.84375 46.4375 
Q 14.5 44.390625 14.5 40.28125 
Q 14.5 37.15625 16.890625 35.375 
Q 19.28125 33.59375 26.515625 31.984375 
L 29.59375 31.296875 
Q 39.15625 29.25 43.1875 25.515625 
Q 47.21875 21.78125 47.21875 15.09375 
Q 47.21875 7.46875 41.1875 3.015625 
Q 35.15625 -1.421875 24.609375 -1.421875 
Q 20.21875 -1.421875 15.453125 -0.5625 
Q 10.6875 0.296875 5.421875 2 
L 5.421875 11.28125 
Q 10.40625 8.6875 15.234375 7.390625 
Q 20.0625 6.109375 24.8125 6.109375 
Q 31.15625 6.109375 34.5625 8.28125 
Q 37.984375 10.453125 37.984375 14.40625 
Q 37.984375 18.0625 35.515625 20.015625 
Q 33.0625 21.96875 24.703125 23.78125 
L 21.578125 24.515625 
Q 13.234375 26.265625 9.515625 29.90625 
Q 5.8125 33.546875 5.8125 39.890625 
Q 5.8125 47.609375 11.28125 51.796875 
Q 16.75 56 26.8125 56 
Q 31.78125 56 36.171875 55.265625 
Q 40.578125 54.546875 44.28125 53.078125 
z
" id="DejaVuSans-115"/>
     <path d="M 9.421875 54.6875 
L 18.40625 54.6875 
L 18.40625 -0.984375 
Q 18.40625 -11.421875 14.421875 -16.109375 
Q 10.453125 -20.796875 1.609375 -20.796875 
L -1.8125 -20.796875 
L -1.8125 -13.1875 
L 0.59375 -13.1875 
Q 5.71875 -13.1875 7.5625 -10.8125 
Q 9.421875 -8.453125 9.421875 -0.984375 
z
M 9.421875 75.984375 
L 18.40625 75.984375 
L 18.40625 64.59375 
L 9.421875 64.59375 
z
" id="DejaVuSans-106"/>
     <path d="M 19.671875 34.8125 
L 19.671875 8.109375 
L 35.5 8.109375 
Q 43.453125 8.109375 47.28125 11.40625 
Q 51.125 14.703125 51.125 21.484375 
Q 51.125 28.328125 47.28125 31.5625 
Q 43.453125 34.8125 35.5 34.8125 
z
M 19.671875 64.796875 
L 19.671875 42.828125 
L 34.28125 42.828125 
Q 41.5 42.828125 45.03125 45.53125 
Q 48.578125 48.25 48.578125 53.8125 
Q 48.578125 59.328125 45.03125 62.0625 
Q 41.5 64.796875 34.28125 64.796875 
z
M 9.8125 72.90625 
L 35.015625 72.90625 
Q 46.296875 72.90625 52.390625 68.21875 
Q 58.5 63.53125 58.5 54.890625 
Q 58.5 48.1875 55.375 44.234375 
Q 52.25 40.28125 46.1875 39.3125 
Q 53.46875 37.75 57.5 32.78125 
Q 61.53125 27.828125 61.53125 20.40625 
Q 61.53125 10.640625 54.890625 5.3125 
Q 48.25 0 35.984375 0 
L 9.8125 0 
z
" id="DejaVuSans-66"/>
     <path d="M 3.328125 72.90625 
L 13.28125 72.90625 
L 28.609375 11.28125 
L 43.890625 72.90625 
L 54.984375 72.90625 
L 70.3125 11.28125 
L 85.59375 72.90625 
L 95.609375 72.90625 
L 77.296875 0 
L 64.890625 0 
L 49.515625 63.28125 
L 33.984375 0 
L 21.578125 0 
z
" id="DejaVuSans-87"/>
     <path d="M 34.1875 63.1875 
L 20.796875 26.90625 
L 47.609375 26.90625 
z
M 28.609375 72.90625 
L 39.796875 72.90625 
L 67.578125 0 
L 57.328125 0 
L 50.6875 18.703125 
L 17.828125 18.703125 
L 11.1875 0 
L 0.78125 0 
z
" id="DejaVuSans-65"/>
     <path d="M 9.8125 72.90625 
L 24.515625 72.90625 
L 43.109375 23.296875 
L 61.8125 72.90625 
L 76.515625 72.90625 
L 76.515625 0 
L 66.890625 0 
L 66.890625 64.015625 
L 48.09375 14.015625 
L 38.1875 14.015625 
L 19.390625 64.015625 
L 19.390625 0 
L 9.8125 0 
z
" id="DejaVuSans-77"/>
     <path d="M 31 75.875 
Q 24.46875 64.65625 21.28125 53.65625 
Q 18.109375 42.671875 18.109375 31.390625 
Q 18.109375 20.125 21.3125 9.0625 
Q 24.515625 -2 31 -13.1875 
L 23.1875 -13.1875 
Q 15.875 -1.703125 12.234375 9.375 
Q 8.59375 20.453125 8.59375 31.390625 
Q 8.59375 42.28125 12.203125 53.3125 
Q 15.828125 64.359375 23.1875 75.875 
z
" id="DejaVuSans-40"/>
     <path d="M 2.984375 54.6875 
L 12.5 54.6875 
L 29.59375 8.796875 
L 46.6875 54.6875 
L 56.203125 54.6875 
L 35.6875 0 
L 23.484375 0 
z
" id="DejaVuSans-118"/>
     <path d="M 32.171875 -5.078125 
Q 28.375 -14.84375 24.75 -17.8125 
Q 21.140625 -20.796875 15.09375 -20.796875 
L 7.90625 -20.796875 
L 7.90625 -13.28125 
L 13.1875 -13.28125 
Q 16.890625 -13.28125 18.9375 -11.515625 
Q 21 -9.765625 23.484375 -3.21875 
L 25.09375 0.875 
L 2.984375 54.6875 
L 12.5 54.6875 
L 29.59375 11.921875 
L 46.6875 54.6875 
L 56.203125 54.6875 
z
" id="DejaVuSans-121"/>
     <path d="M 8.015625 75.875 
L 15.828125 75.875 
Q 23.140625 64.359375 26.78125 53.3125 
Q 30.421875 42.28125 30.421875 31.390625 
Q 30.421875 20.453125 26.78125 9.375 
Q 23.140625 -1.703125 15.828125 -13.1875 
L 8.015625 -13.1875 
Q 14.5 -2 17.703125 9.0625 
Q 20.90625 20.125 20.90625 31.390625 
Q 20.90625 42.671875 17.703125 53.65625 
Q 14.5 64.65625 8.015625 75.875 
z
" id="DejaVuSans-41"/>
    </defs>
    <g transform="translate(1234.037812 166.8)scale(0.12 -0.12)">
     <use xlink:href="#DejaVuSans-80"/>
     <use x="60.287109" xlink:href="#DejaVuSans-114"/>
     <use x="101.369141" xlink:href="#DejaVuSans-101"/>
     <use x="162.892578" xlink:href="#DejaVuSans-100"/>
     <use x="226.369141" xlink:href="#DejaVuSans-105"/>
     <use x="254.152344" xlink:href="#DejaVuSans-99"/>
     <use x="309.132812" xlink:href="#DejaVuSans-116"/>
     <use x="348.341797" xlink:href="#DejaVuSans-105"/>
     <use x="376.125" xlink:href="#DejaVuSans-111"/>
     <use x="437.306641" xlink:href="#DejaVuSans-110"/>
     <use x="500.685547" xlink:href="#DejaVuSans-32"/>
     <use x="532.472656" xlink:href="#DejaVuSans-102"/>
     <use x="567.677734" xlink:href="#DejaVuSans-111"/>
     <use x="628.859375" xlink:href="#DejaVuSans-114"/>
     <use x="669.972656" xlink:href="#DejaVuSans-32"/>
     <use x="701.759766" xlink:href="#DejaVuSans-116"/>
     <use x="740.96875" xlink:href="#DejaVuSans-104"/>
     <use x="804.347656" xlink:href="#DejaVuSans-101"/>
     <use x="865.871094" xlink:href="#DejaVuSans-32"/>
     <use x="897.658203" xlink:href="#DejaVuSans-116"/>
     <use x="936.867188" xlink:href="#DejaVuSans-111"/>
     <use x="998.048828" xlink:href="#DejaVuSans-114"/>
     <use x="1039.146484" xlink:href="#DejaVuSans-113"/>
     <use x="1102.623047" xlink:href="#DejaVuSans-117"/>
     <use x="1166.001953" xlink:href="#DejaVuSans-101"/>
     <use x="1227.525391" xlink:href="#DejaVuSans-32"/>
     <use x="1259.3125" xlink:href="#DejaVuSans-111"/>
     <use x="1320.494141" xlink:href="#DejaVuSans-102"/>
     <use x="1355.699219" xlink:href="#DejaVuSans-32"/>
     <use x="1387.486328" xlink:href="#DejaVuSans-116"/>
     <use x="1426.695312" xlink:href="#DejaVuSans-104"/>
     <use x="1490.074219" xlink:href="#DejaVuSans-101"/>
     <use x="1551.597656" xlink:href="#DejaVuSans-32"/>
     <use x="1583.384766" xlink:href="#DejaVuSans-102"/>
     <use x="1618.589844" xlink:href="#DejaVuSans-105"/>
     <use x="1646.373047" xlink:href="#DejaVuSans-114"/>
     <use x="1687.486328" xlink:href="#DejaVuSans-115"/>
     <use x="1739.585938" xlink:href="#DejaVuSans-116"/>
     <use x="1778.794922" xlink:href="#DejaVuSans-32"/>
     <use x="1810.582031" xlink:href="#DejaVuSans-106"/>
     <use x="1838.365234" xlink:href="#DejaVuSans-111"/>
     <use x="1899.546875" xlink:href="#DejaVuSans-105"/>
     <use x="1927.330078" xlink:href="#DejaVuSans-110"/>
     <use x="1990.708984" xlink:href="#DejaVuSans-116"/>
     <use x="2029.917969" xlink:href="#DejaVuSans-32"/>
     <use x="2061.705078" xlink:href="#DejaVuSans-111"/>
     <use x="2122.886719" xlink:href="#DejaVuSans-102"/>
     <use x="2158.091797" xlink:href="#DejaVuSans-32"/>
     <use x="2189.878906" xlink:href="#DejaVuSans-66"/>
     <use x="2258.482422" xlink:href="#DejaVuSans-97"/>
     <use x="2319.761719" xlink:href="#DejaVuSans-114"/>
     <use x="2360.859375" xlink:href="#DejaVuSans-114"/>
     <use x="2401.941406" xlink:href="#DejaVuSans-101"/>
     <use x="2463.464844" xlink:href="#DejaVuSans-116"/>
     <use x="2502.673828" xlink:href="#DejaVuSans-32"/>
     <use x="2534.460938" xlink:href="#DejaVuSans-87"/>
     <use x="2633.259766" xlink:href="#DejaVuSans-65"/>
     <use x="2701.667969" xlink:href="#DejaVuSans-77"/>
     <use x="2787.947266" xlink:href="#DejaVuSans-32"/>
     <use x="2819.734375" xlink:href="#DejaVuSans-40"/>
     <use x="2858.748047" xlink:href="#DejaVuSans-105"/>
     <use x="2886.53125" xlink:href="#DejaVuSans-110"/>
     <use x="2949.910156" xlink:href="#DejaVuSans-118"/>
     <use x="3009.089844" xlink:href="#DejaVuSans-101"/>
     <use x="3070.613281" xlink:href="#DejaVuSans-114"/>
     <use x="3111.726562" xlink:href="#DejaVuSans-115"/>
     <use x="3163.826172" xlink:href="#DejaVuSans-101"/>
     <use x="3225.349609" xlink:href="#DejaVuSans-32"/>
     <use x="3257.136719" xlink:href="#DejaVuSans-100"/>
     <use x="3320.613281" xlink:href="#DejaVuSans-121"/>
     <use x="3379.792969" xlink:href="#DejaVuSans-110"/>
     <use x="3443.171875" xlink:href="#DejaVuSans-97"/>
     <use x="3504.451172" xlink:href="#DejaVuSans-109"/>
     <use x="3601.863281" xlink:href="#DejaVuSans-105"/>
     <use x="3629.646484" xlink:href="#DejaVuSans-99"/>
     <use x="3684.626953" xlink:href="#DejaVuSans-115"/>
     <use x="3736.726562" xlink:href="#DejaVuSans-32"/>
     <use x="3768.513672" xlink:href="#DejaVuSans-100"/>
     <use x="3831.990234" xlink:href="#DejaVuSans-97"/>
     <use x="3893.269531" xlink:href="#DejaVuSans-116"/>
     <use x="3932.478516" xlink:href="#DejaVuSans-97"/>
     <use x="3993.757812" xlink:href="#DejaVuSans-41"/>
    </g>
   </g>
  </g>
 </g>
 <defs>
  <clipPath id="p717f68e6f6">
   <rect height="1108.8" width="2232" x="360" y="172.8"/>
  </clipPath>
 </defs>
</svg>
